<?xml version="1.0" encoding="utf-8"?>
<!-- Generator: Adobe Illustrator 23.0.0, SVG Export Plug-In . SVG Version: 6.00 Build 0)  -->
<svg version="1.1" id="Capa_1" xmlns="http://www.w3.org/2000/svg" xmlns:xlink="http://www.w3.org/1999/xlink" x="0px" y="0px"
	 viewBox="0 0 45.4 45.4" style="enable-background:new 0 0 45.4 45.4;" xml:space="preserve">
<style type="text/css">
	.st0{fill:#0098FF;}
	.st1{display:none;fill:#0098FF;}
</style>
<g>
	<path class="st0" d="M22.9,44.6c-0.2,0-0.4,0-0.6,0c0,0-0.1,0-0.1,0c-1.3-0.2-2.4-1.3-2.4-2.6c0-0.7,0-1.5,0-2.2
		c0-0.2-0.1-0.4-0.3-0.4c-0.4-0.1-0.6-0.4-0.5-0.8c0-0.2,0-0.5,0-0.7c0.1-1.1,0.5-2.2,0.9-3.3c0-0.1,0.1-0.1,0.1-0.2
		c-0.2,0.1-0.3,0.3-0.5,0.4c-0.5,0.7-1,1.4-1.4,2.1c-0.1,0.2-0.2,0.2-0.4,0.2c-0.3-0.1-0.6-0.2-1-0.3c-0.6-0.1-1.1-0.3-1.7-0.4
		c0,0.1,0,0.2,0,0.3c0,0.5,0,0.9,0,1.4c-0.1,1.3-1.5,2.3-2.8,2c-1.3-0.3-2-1.2-2-2.5c0-5.8,0-11.7,0-17.5c0-0.1,0-0.2,0-0.3
		c-0.3,0-0.6,0-0.9,0c-1.4,0-2.6-1-2.9-2.4c0-0.1,0-0.2-0.1-0.2c-0.5-0.3-0.7-0.8-0.9-1.3c0-0.2,0-0.4,0-0.6c0-0.1,0-0.2,0.1-0.2
		c0.2-0.8,0.9-1.4,1.8-1.4c0.9,0,1.6,0.5,1.9,1.3c0.3,0.8,0,1.7-0.6,2.2c-0.1,0-0.1,0.1-0.2,0.2c0.1,0.3,0.4,0.5,0.7,0.5
		c0.4,0,0.8,0,1.2,0c0-0.1,0-0.2,0-0.3c0-3.9,0-7.7,0-11.6c0-1.3,0.9-2.5,2.2-2.8C12.6,3.1,12.8,3,13,2.9c0.8-0.3,1.5-0.6,2.3-0.9
		c3.2-1.1,6.6-1.6,10-1.2c2.6,0.3,5.1,1,7.4,2.2C32.8,3,32.9,3.1,33,3.1c1.5,0.4,2.3,1.5,2.3,3c0,3.8,0,7.6,0,11.4
		c0,0.1,0,0.2,0,0.3c0.4,0,0.7,0,1.1,0c0.2,0,0.4-0.1,0.6-0.3c0.2-0.2,0.2-0.3,0-0.5c-0.6-0.5-0.8-1.4-0.6-2.2
		c0.3-0.8,1-1.3,1.9-1.3c0.8,0,1.5,0.6,1.8,1.3c0,0.1,0.1,0.2,0.1,0.3c0,0.2,0,0.4,0,0.6c-0.1,0.5-0.3,1-0.8,1.3
		c-0.2,0.1-0.2,0.3-0.3,0.4c-0.2,0.7-0.5,1.2-1.1,1.6c-0.5,0.4-1.1,0.6-1.8,0.6c-0.3,0-0.6,0-0.9,0c0,0.1,0,0.2,0,0.4
		c0,5.8,0,11.6,0,17.4c0,0.2,0,0.4,0,0.7c-0.2,1.3-1.5,2.2-2.8,1.9c-1.2-0.3-2-1.2-2-2.4c0-0.4,0-0.8,0-1.3c-0.1,0-0.1,0-0.1,0
		c-0.8,0.2-1.6,0.4-2.5,0.6c-0.2,0.1-0.3,0-0.4-0.2c-0.5-0.7-1-1.4-1.4-2.1c-0.1-0.2-0.3-0.3-0.4-0.4c0,0.2,0.1,0.4,0.2,0.6
		c0.4,1.1,0.7,2.3,0.8,3.5c0,0.4-0.2,0.6-0.5,0.8c-0.1,0.1-0.2,0.1-0.4,0.2c-0.1,0-0.2,0.1-0.2,0.3c0,0.7,0,1.4,0,2.1
		c0,1.1-0.6,2-1.6,2.5C23.6,44.5,23.3,44.5,22.9,44.6z M26.1,11.4c-1.1,1.5-2.2,3-3.3,4.5c2.2,0,4.3,0,6.5,0c0-3.8,0-7.6,0-11.3
		c-4.4-0.5-8.8-0.5-13.2,0c0,3.8,0,7.6,0,11.3c0,0,0,0,0.1,0c1.9,0,3.8,0,5.7,0c0.1,0,0.2-0.1,0.2-0.1c0.4-0.6,0.9-1.2,1.3-1.8
		c0.7-1,1.5-2,2.2-3c-0.1-0.1-0.1-0.2,0-0.3c0.2-0.3,0.4-0.6,0.7-0.9c0.3-0.4,0.6-0.8,0.9-1.2C27.5,8.8,27.8,9,28,9.2
		c-0.6,0.8-1.2,1.6-1.7,2.4C26.2,11.5,26.2,11.5,26.1,11.4z M33.3,16c0-0.1,0-0.2,0-0.3c0-1.7,0-3.3,0-5c0-1.5,0-3.1,0-4.6
		c0-0.5-0.3-0.9-0.8-1c-0.3-0.1-0.5-0.1-0.8-0.1c-0.6-0.1-1.2-0.1-1.9-0.2c0,3.8,0,7.5,0,11.3C31,16,32.2,16,33.3,16z M15.5,4.7
		c-0.8,0.1-1.6,0.2-2.4,0.3c-0.7,0.1-1,0.4-1,1.1c0,3.2,0,6.4,0,9.6c0,0.1,0,0.2,0,0.3c1.2,0,2.3,0,3.4,0
		C15.5,12.2,15.5,8.4,15.5,4.7z M22.6,33.6c1.1,0,1.9-0.9,1.9-2c0-1.1-0.9-1.9-1.9-1.9c-1.1,0-1.9,0.9-1.9,1.9
		C20.7,32.7,21.5,33.6,22.6,33.6z M15.9,23.6c0.7,0,1.3-0.3,1.6-0.9c0.3-0.5,0.3-0.9-0.1-1.4c-0.7-0.9-2.4-0.9-3.1,0
		c-0.3,0.4-0.4,0.8-0.1,1.3C14.6,23.3,15.1,23.6,15.9,23.6z M29.3,20.7c-0.6,0-1.3,0.3-1.7,0.9c-0.1,0.2-0.2,0.4-0.1,0.6
		c0.3,0.7,0.8,1.2,1.5,1.3c0.8,0.1,1.4-0.1,1.9-0.8c0.4-0.5,0.4-1.1-0.1-1.6C30.5,20.8,30,20.7,29.3,20.7z"/>
	<path class="st1" d="M22.9,44.6c0.3-0.1,0.7-0.2,1-0.3c1-0.5,1.5-1.4,1.6-2.5c0-0.7,0-1.4,0-2.1c0-0.1,0-0.2,0.2-0.3
		c0.1,0,0.2-0.1,0.4-0.2c0.3-0.2,0.5-0.4,0.5-0.8c0-1.2-0.4-2.4-0.8-3.5c-0.1-0.2-0.1-0.4-0.2-0.6c0.1,0.1,0.3,0.3,0.4,0.4
		c0.5,0.7,1,1.4,1.4,2.1c0.1,0.2,0.2,0.2,0.4,0.2c0.8-0.2,1.6-0.4,2.5-0.6c0,0,0.1,0,0.1,0c0,0.4,0,0.8,0,1.3c0,1.2,0.8,2.2,2,2.4
		c1.3,0.3,2.6-0.6,2.8-1.9c0-0.2,0-0.4,0-0.7c0-5.8,0-11.6,0-17.4c0-0.1,0-0.2,0-0.4c0.3,0,0.6,0,0.9,0c0.7,0,1.2-0.2,1.8-0.6
		c0.5-0.4,0.9-0.9,1.1-1.6c0-0.2,0.1-0.3,0.3-0.4c0.4-0.3,0.7-0.8,0.8-1.3c0,9.6,0,19.2,0,28.8C34.4,44.6,28.7,44.6,22.9,44.6z"/>
	<path class="st1" d="M5.3,15.9c0.1,0.6,0.4,1,0.9,1.3c0,0,0.1,0.1,0.1,0.2c0.3,1.4,1.5,2.3,2.9,2.4c0.3,0,0.6,0,0.9,0
		c0,0.1,0,0.2,0,0.3c0,5.8,0,11.7,0,17.5c0,1.3,0.8,2.2,2,2.5c1.3,0.3,2.6-0.7,2.8-2c0.1-0.5,0-0.9,0-1.4c0-0.1,0-0.2,0-0.3
		c0.6,0.2,1.1,0.3,1.7,0.4c0.3,0.1,0.6,0.2,1,0.3c0.2,0.1,0.3,0,0.4-0.2c0.5-0.7,0.9-1.4,1.4-2.1c0.1-0.2,0.3-0.3,0.5-0.4
		c0,0.1-0.1,0.1-0.1,0.2c-0.4,1.1-0.7,2.1-0.9,3.3c0,0.2,0,0.5,0,0.7c0,0.4,0.2,0.7,0.5,0.8c0.2,0.1,0.3,0.2,0.3,0.4
		c0,0.7,0,1.5,0,2.2c0.1,1.3,1.1,2.5,2.4,2.6c0,0,0.1,0,0.1,0c-5.7,0-11.3,0-17,0C5.3,35,5.3,25.5,5.3,15.9z"/>
</g>
</svg>
