<svg xmlns="http://www.w3.org/2000/svg" viewBox="0 0 53.74 48.77"><defs><style>.cls-1{fill:#1976d3;}</style></defs><title>Bike wash - blue</title><g id="Layer_2" data-name="Layer 2"><g id="Layer_1-2" data-name="Layer 1"><path class="cls-1" d="M31.84,31.85a1.51,1.51,0,0,0-1.51,1.5,6.87,6.87,0,0,0,0,1.57,4.32,4.32,0,0,1-2,4.64,1.8,1.8,0,0,1-1.05.44q-4.48,0-9,0c-.53,0-.72-.2-.77-.73a8.52,8.52,0,0,0-1.32-3.83A8.7,8.7,0,1,0,10,48.7a8.43,8.43,0,0,0,6.84-5,1.19,1.19,0,0,1,1.26-.79c1.65,0,3.3,0,5,0s3.3,0,4.95,0a2.45,2.45,0,0,0,1.91-.76c.87-.86,1.78-1.7,2.69-2.52a1.9,1.9,0,0,0,.67-1.52c0-1.55,0-3.1,0-4.64A1.54,1.54,0,0,0,31.84,31.85ZM13.51,43.5A5.78,5.78,0,1,1,4.72,36a5.86,5.86,0,0,1,8.44.14c.37.4.38.58-.12.85-1.62.88-3.2,1.8-4.8,2.69a9.85,9.85,0,0,1-1,.37,1.37,1.37,0,0,0-1,1.52,1.35,1.35,0,0,0,1.35,1.28c1,.05,1.94,0,2.91,0h2.59c.2,0,.48-.11.55.15S13.61,43.36,13.51,43.5Z"/><path class="cls-1" d="M41.06,31.71c-.37.11-.68.23-.93-.21-.62-1.1-1.28-2.17-1.92-3.25a2.08,2.08,0,0,0,2.25.71,2.35,2.35,0,0,0,1.47-3,2.25,2.25,0,0,0-2.88-1.18c-1.25.44-1.63,1.38-1.11,2.78l.09.3a9.56,9.56,0,0,1-.6-.82c-1.73-2.79-3.45-5.57-5.15-8.37a2,2,0,0,0-1.93-1.08c-1.49.06-3,0-4.48,0-1,0-1.67.56-1.68,1.37a1.49,1.49,0,0,0,1.61,1.47c1.1,0,2.2,0,3.3,0a1.3,1.3,0,0,1,1.36.67c2.32,3.78,4.63,7.55,7,11.29A1,1,0,0,1,37.25,34a8.19,8.19,0,0,0-2.49,7.3A8.65,8.65,0,0,0,44,48.71a8.82,8.82,0,0,0,8-8.55A8.7,8.7,0,0,0,41.06,31.71Zm1.67,14.15a5.3,5.3,0,0,1-4.64-3.33A5.9,5.9,0,0,1,39,36.12c.33-.41.53-.38.79.07.64,1.09,1.3,2.16,2,3.21s1.36,1.15,2.09.67.82-1.29.25-2.2S43,36,42.35,35.06c-.35-.53-.24-.72.36-.8a5.88,5.88,0,0,1,6.46,5.83C49.06,43.42,46.61,45.84,42.73,45.86Z"/><path class="cls-1" d="M31.59,25.45c-3.29-.78-6.51-.8-9.36,1.43a3.4,3.4,0,0,1-1.88.71,71.5,71.5,0,0,1-8.41,0c-1.1,0-2.2-.06-3.3,0A1.62,1.62,0,0,0,7,29.11,1.65,1.65,0,0,0,8.35,31,7.37,7.37,0,0,0,9.76,31h18c1,0,2.46,0,4-.12A2.17,2.17,0,0,0,34,28.69,3,3,0,0,0,31.59,25.45Z"/><path class="cls-1" d="M26.31,38.76h.15A1.58,1.58,0,0,0,28.17,37c0-1,0-1.94,0-2.91a1.4,1.4,0,0,0-1.53-1.53c-2.23,0-4.46,0-6.68,0a1.35,1.35,0,0,0-1.49,1.31,12.08,12.08,0,0,0,0,3.29,1.52,1.52,0,0,0,1.72,1.55c1,0,2.1,0,3.15,0h3Z"/><path class="cls-1" d="M53.74,27.93V25.79a7,7,0,0,0-1.89-3.37.85.85,0,0,1-.22-.71,3.84,3.84,0,0,0-1.73-3.44.87.87,0,0,1-.43-.87,5.13,5.13,0,0,0-2.53-4.8,4.75,4.75,0,0,0-5.33-.11c-.41.24-.61.23-.91-.16a3.53,3.53,0,0,0-3.13-1.62,1.08,1.08,0,0,1-1.11-.52,3.69,3.69,0,0,0-5.09-1.07.7.7,0,0,1-1-.14A4.53,4.53,0,0,0,24,8.54c-.75.62-1.3.88-2.21.36a2.53,2.53,0,0,1-1-.87,5.09,5.09,0,0,0-4.34-2.7,5.32,5.32,0,0,0-5.61,4.6c-.08.49-.25.73-.72.81a7.68,7.68,0,0,0-3.56,2,.66.66,0,0,1-.56.14,4.16,4.16,0,0,0-4.25,2,4.26,4.26,0,0,0,1.11,5.78c.5.4.54.66.08,1A6.81,6.81,0,0,0,0,25.79v2.14a7.83,7.83,0,0,0,1.25,2.62.44.44,0,0,1,0,.58A6.53,6.53,0,0,0,0,33.41v.1a11,11,0,0,1,3.86-3.22c-.07-.09-.14-.19-.23-.29a6.2,6.2,0,0,1-.83-1,4.21,4.21,0,0,1,1.75-5.9c.41-.22.85-.45.89-1s.31-.57.71-.66a4.3,4.3,0,0,0,2.5-7.09c-.25-.31-.18-.46.07-.68a2.77,2.77,0,0,1,2.66-.63,1.27,1.27,0,0,0,1.7-1.68,2.73,2.73,0,0,1,.62-2.67,3.12,3.12,0,0,1,5.38,1,1.46,1.46,0,0,0,1.53,1.12,1.89,1.89,0,0,1,1.42.74,1.25,1.25,0,0,0,2.07-.17,3.12,3.12,0,0,1,5.51-.06,1.25,1.25,0,0,0,2.07.27,2.06,2.06,0,0,1,3.62.66,1.16,1.16,0,0,0,1.61.8,2.22,2.22,0,0,1,2.72,1.43c.37,1.18,1.24,1.4,2.12.56A3.13,3.13,0,0,1,47.1,18a1.19,1.19,0,0,0,.8,1.52,2.37,2.37,0,0,1,1.35,2.65,1.22,1.22,0,0,0,.45,1.23,7.76,7.76,0,0,1,.79.72,4.24,4.24,0,0,1-.29,5.82c-.45.47-.6.86-.46,1.25a10.92,10.92,0,0,1,3.79,4.75,6.45,6.45,0,0,0,.21-.62v-1.9a6.72,6.72,0,0,0-1.21-2.27.46.46,0,0,1,0-.6A8,8,0,0,0,53.74,27.93ZM5.36,19.24a1.94,1.94,0,0,1-2-2.06,2,2,0,0,1,2.06-2.06,2.09,2.09,0,0,1,2.07,2.09A2,2,0,0,1,5.36,19.24Z"/><path class="cls-1" d="M30.82,1.63a3.69,3.69,0,0,0-2-1.63H27.11l-.59.27a3.28,3.28,0,1,0,2.89,5.89A3.3,3.3,0,0,0,30.82,1.63ZM28,4.23a1,1,0,0,1-1-1,.94.94,0,0,1,.93-1A1,1,0,0,1,29,3.19,1.07,1.07,0,0,1,28,4.23Z"/><path class="cls-1" d="M44.11,1a4.38,4.38,0,0,0-4.41,4.3,4.37,4.37,0,1,0,8.73.08A4.35,4.35,0,0,0,44.11,1Zm0,6.43A2.06,2.06,0,0,1,42,5.36a2,2,0,0,1,2.08-2,2,2,0,0,1,2,2.06A2,2,0,0,1,44.06,7.45Z"/></g></g></svg>