<svg xmlns="http://www.w3.org/2000/svg" viewBox="0 0 50.28 30.18"><defs><style>.cls-1{fill:#bf2c2c;}</style></defs><title>Bike less spots</title><g id="Layer_2" data-name="Layer 2"><g id="Layer_1-2" data-name="Layer 1"><path class="cls-1" d="M32.05,15.34a1.41,1.41,0,1,0-2.82-.1,7,7,0,0,0,0,1.52,4.18,4.18,0,0,1-1.91,4.49,1.72,1.72,0,0,1-1,.42l-8.69,0c-.52,0-.71-.19-.75-.7a8.24,8.24,0,0,0-1.28-3.71A8.43,8.43,0,1,0,9.48,30.11a8.16,8.16,0,0,0,6.63-4.88,1.14,1.14,0,0,1,1.22-.76c1.6,0,3.2,0,4.81,0s3.2,0,4.8,0a2.41,2.41,0,0,0,1.84-.74c.85-.83,1.73-1.65,2.61-2.44A1.8,1.8,0,0,0,32,19.83C32,18.33,32.05,16.83,32.05,15.34ZM12.93,25.07a5.61,5.61,0,1,1-8.52-7.25,5.67,5.67,0,0,1,8.18.14c.36.38.37.56-.12.82-1.56.85-3.09,1.74-4.65,2.6a9.11,9.11,0,0,1-.91.37,1.39,1.39,0,0,0,.37,2.71c.93,0,1.88,0,2.81,0h2.52c.18,0,.46-.11.53.14S13,24.93,12.93,25.07Z"/><path class="cls-1" d="M39.63,13.65c-.36.1-.65.22-.9-.22-.6-1-1.24-2.09-1.86-3.14L36.69,10c-.19-.26-.41-.51-.58-.79Q33.6,5.11,31.12,1a1.92,1.92,0,0,0-1.87-1c-1.44.05-2.89,0-4.34,0-1,0-1.61.54-1.63,1.33a1.44,1.44,0,0,0,1.56,1.42c1.07,0,2.14,0,3.2,0a1.26,1.26,0,0,1,1.32.65C31.6,7,33.85,10.69,36.15,14.31a1,1,0,0,1-.21,1.5,8,8,0,0,0-2.42,7.08,8.38,8.38,0,0,0,9,7.22,8.54,8.54,0,0,0,7.76-8.28A8.42,8.42,0,0,0,39.63,13.65Zm7.86,8.12c-.1,3.22-2.48,5.57-6.24,5.58a5.16,5.16,0,0,1-4.5-3.22,5.69,5.69,0,0,1,.85-6.21c.31-.4.51-.37.76.07C39,19,39.62,20.08,40.29,21.1s1.32,1.11,2,.64.79-1.24.23-2.13-1.09-1.83-1.67-2.72c-.34-.51-.23-.7.35-.78A5.71,5.71,0,0,1,47.49,21.77Z"/><path class="cls-1" d="M26.79,13H9.29a6.87,6.87,0,0,1-1.36-.1,1.58,1.58,0,0,1-1.3-1.78A1.55,1.55,0,0,1,8.21,9.67c1.07,0,2.14,0,3.2,0a71.47,71.47,0,0,0,8.15,0A3.29,3.29,0,0,0,21.38,9c2.76-2.15,5.89-2.14,9.07-1.38a2.91,2.91,0,0,1,2.35,3.14,2.1,2.1,0,0,1-2.18,2.17C29.18,13,27.73,13,26.79,13Z"/><path class="cls-1" d="M22.44,20.47c-1,0-2,0-3.05,0A1.47,1.47,0,0,1,17.72,19a11.36,11.36,0,0,1,0-3.19,1.32,1.32,0,0,1,1.44-1.28q3.24,0,6.48,0A1.36,1.36,0,0,1,27.14,16q0,1.41,0,2.82a1.52,1.52,0,0,1-1.65,1.67h-3Z"/><path class="cls-1" d="M36.87,10.29,36.69,10c0-.1,0-.2-.08-.29-.5-1.36-.14-2.26,1.07-2.7a2.2,2.2,0,0,1,2.8,1.15A2.28,2.28,0,0,1,39.05,11,2,2,0,0,1,36.87,10.29Z"/></g></g></svg>