<?xml version="1.0" encoding="utf-8"?>
<!-- Generator: Adobe Illustrator 23.0.0, SVG Export Plug-In . SVG Version: 6.00 Build 0)  -->
<svg version="1.1" id="Layer_1" xmlns="http://www.w3.org/2000/svg" xmlns:xlink="http://www.w3.org/1999/xlink" x="0px" y="0px"
	 viewBox="0 0 86 86" style="enable-background:new 0 0 86 86;" xml:space="preserve">
<style type="text/css">
	.st0{fill:#1976D3;}
	.st1{fill:#FFFFFF;}
</style>
<path class="st0" d="M43.1,1.6L43.1,1.6C20.4,1.9,2.2,20.7,2.6,43.4C2.9,65.7,20.9,83.7,43.1,84l0,0C65.9,83.6,84,64.9,83.7,42.2
	C83.3,19.9,65.4,1.9,43.1,1.6z"/>
<path class="st1" d="M66.7,41c0-1.9-1.3-3.6-3.2-3.9c-0.4,0-0.7-0.3-0.7-0.6L61.3,31l0,0c-0.7-1.9-1.7-5.4-2.2-5.7s-10.8-1-16.6-1
	S29.4,24.8,28,24.8h-0.1c-0.7,0-1.4,0.5-1.6,1.2l0,0l0,0l0,0l0,0c-1,3.3-2,6.6-2.9,10c-0.1,0.5-0.5,0.9-1.1,1
	c-1.7,0.3-2.9,1.7-2.9,3.4c0,4.6,0,9.1,0,13.7c0,0.6,0.2,0.7,0.7,0.7c0.7,0,1.4,0,2.1,0s0.9,0.2,0.9,0.8c0,1.5,0,3,0,4.4
	c-0.1,0.4,0.2,0.8,0.6,0.9c0,0,0,0,0,0c1.5,0.4,3,0.4,4.5,0c0.5-0.1,0.9-0.5,0.8-1c0,0,0,0,0,0c0-1.4,0-2.8,0-4.2c0-1,0-1,1-1h13
	c4.4,0,8.8,0,13.2,0c0.7,0,0.9,0.2,0.9,0.9c0,1.5,0,3,0,4.4c-0.1,0.4,0.2,0.8,0.6,0.9c1.6,0.4,3.2,0.4,4.7,0
	c0.4-0.1,0.7-0.5,0.7-0.9c0-1.1,0-2.2,0-3.2c0-2.1,0-2.1,2.1-2.1c1.6,0,1.6,0,1.6-1.6C66.7,49.2,66.7,45.1,66.7,41z M28,48.6
	c-2.2,0-3.9-1.8-3.9-3.9c0-0.1,0-0.1,0-0.2c0.1-2.2,1.9-3.9,4.1-3.9s3.9,1.9,3.9,4.1C32,47,30.2,48.7,28,48.6z M43,37H26.7
	c-0.8,0-0.8,0-0.6-0.8c0.8-2.7,1.6-5.5,2.3-8.2c0.1-0.5,0.3-0.7,0.8-0.7c0.4,0,0.8,0,1.2-0.1l0,0C31,26.9,42,25.7,53.5,27
	c1.1,0,2.3,0.2,3.4,0.3c0.5,0,0.9,0.3,0.9,0.8c0.8,2.8,1.6,5.5,2.4,8.2c0.2,0.6,0,0.8-0.6,0.8C54,37,48.5,37,43,37z M58,48.6
	c-2.2-0.1-3.9-1.9-3.9-4.1c0.1-2.2,1.9-3.9,4.1-3.9s3.9,1.9,3.9,4.1C62,47,60.2,48.7,58,48.6z"/>
</svg>
