<svg xmlns="http://www.w3.org/2000/svg" xmlns:xlink="http://www.w3.org/1999/xlink" viewBox="0 0 329.51 79.2"><defs><style>.cls-1{fill:url(#linear-gradient);}.cls-2{fill:url(#linear-gradient-2);}.cls-3{fill:url(#linear-gradient-3);}.cls-4{fill:url(#linear-gradient-4);}</style><linearGradient id="linear-gradient" x1="164.75" y1="0.2" x2="164.75" y2="78.94" gradientUnits="userSpaceOnUse"><stop offset="0" stop-color="#d1d3d4"/><stop offset="1" stop-color="#6d6e71"/></linearGradient><linearGradient id="linear-gradient-2" x1="164.73" y1="78.07" x2="164.73" y2="-1.77" gradientUnits="userSpaceOnUse"><stop offset="0" stop-color="#f29900"/><stop offset="1" stop-color="#f2b855"/></linearGradient><linearGradient id="linear-gradient-3" x1="141.01" y1="125.85" x2="166.88" y2="33.26" xlink:href="#linear-gradient-2"/><linearGradient id="linear-gradient-4" x1="33.88" y1="67.78" x2="331.08" y2="1.9" xlink:href="#linear-gradient-2"/></defs><title>Button</title><g id="Layer_2" data-name="Layer 2"><g id="Layer_1-2" data-name="Layer 1"><path class="cls-1" d="M329.51,39.58a39.56,39.56,0,0,1-39.09,39.56v.06H39.09v-.06A39.56,39.56,0,0,1,39.09,0V0H290.42V0A39.57,39.57,0,0,1,329.51,39.58Z"/><path class="cls-2" d="M328.38,39.58a38.49,38.49,0,0,1-38.49,38.49H39.56a38.49,38.49,0,0,1,0-77H289.89A38.49,38.49,0,0,1,328.38,39.58Z"/><path class="cls-3" d="M328.39,39.05c0-.57,0-1.12,0-1.68A38.48,38.48,0,0,1,289.9,74.19H39.57A38.46,38.46,0,0,1,1.12,37.37c0,.56,0,1.11,0,1.68A38.49,38.49,0,0,0,39.57,77.54H289.9A38.49,38.49,0,0,0,328.39,39.05Z"/><path class="cls-4" d="M321.91,38.87a34,34,0,0,1-34,33.95H40.65a34,34,0,0,1,0-67.91H288A34,34,0,0,1,321.91,38.87Z"/></g></g></svg>