<svg xmlns="http://www.w3.org/2000/svg" viewBox="0 0 83.21 83.21"><defs><style>.cls-1{fill:#fff;}.cls-2{fill:#1976d3;}</style></defs><title>Calender</title><g id="Layer_2" data-name="Layer 2"><g id="Layer_1-2" data-name="Layer 1"><path class="cls-1" d="M41.6,0h0a41.61,41.61,0,0,0,0,83.21h0A41.61,41.61,0,1,0,41.6,0Z"/><path class="cls-2" d="M23.38,36.3V24.64a2.25,2.25,0,0,1,2.09-2.2l1.79,0c.35,0,.34,0,.36-.35a3.43,3.43,0,0,1,.17-1.14,1.31,1.31,0,0,1,2.48.1,3.41,3.41,0,0,1,.12,1.1c0,.22.07.3.29.3H44.87c.38,0,.39,0,.38-.39a2.51,2.51,0,0,1,.31-1.31,1.21,1.21,0,0,1,1.32-.62,1.28,1.28,0,0,1,1,1A3.78,3.78,0,0,1,48,22.1c0,.22.06.31.3.31.63,0,1.27,0,1.91,0a2.16,2.16,0,0,1,2,2c.07,1.09.09,2.19.09,3.29,0,2.39,0,4.77,0,7.16,0,.36,0,.34-.36.3a16.27,16.27,0,0,0-1.71,0c-.36,0-.37,0-.37-.36,0-1.21,0-2.42,0-3.63,0-.25-.06-.33-.32-.33-2.59,0-5.17,0-7.76,0-5.2.06-10.4,0-15.6,0-.39,0-.39,0-.39.41V49.93c0,.39,0,.39.38.4,3,.07,6,0,9.05.05.44,0,.43,0,.46.44s.06,1.08.11,1.61c0,.18,0,.25-.21.27l-.45,0c-3.21.07-6.43,0-9.65,0a1.85,1.85,0,0,1-1-.4,2.46,2.46,0,0,1-.93-1,2.58,2.58,0,0,1-.16-1.06c-.09-4.27,0-8.54-.05-12.8Zm4.2-10.76A2.13,2.13,0,0,0,27,27.9a2.23,2.23,0,0,0,2.29,1.45,2.48,2.48,0,0,0,2-1.93,2.15,2.15,0,0,0-.82-1.87v.36A2.49,2.49,0,0,1,30.12,27a1.31,1.31,0,0,1-2.37-.32A10.06,10.06,0,0,1,27.58,25.54Zm17.65,0a2.18,2.18,0,0,0-.6,2.39,2.14,2.14,0,0,0,2.12,1.43,2.17,2.17,0,0,0,2-1.53A2,2,0,0,0,48,25.5c0,.27,0,.52,0,.77a1.44,1.44,0,0,1-.47,1,1.32,1.32,0,0,1-2.15-.72A5.67,5.67,0,0,1,45.23,25.53Z"/><path class="cls-2" d="M50.67,63.15a13.08,13.08,0,0,1-13.09-13,13.07,13.07,0,1,1,13.09,13ZM40.62,50.2c-.13,5.32,4.54,9.83,9.74,10,6,.17,10.6-5,10.32-10.07a10,10,0,1,0-20.06.09Z"/><path class="cls-2" d="M37.81,35.31c-.43,0-.87,0-1.31,0-.19,0-.27-.08-.27-.27,0-.85,0-1.7,0-2.54,0-.2.09-.27.28-.27.87,0,1.74,0,2.62,0,.2,0,.28.08.28.28,0,.84,0,1.68,0,2.52,0,.21-.09.29-.29.28C38.68,35.3,38.25,35.31,37.81,35.31Z"/><path class="cls-2" d="M33.31,44.43H32c-.15,0-.27,0-.26-.22,0-.87,0-1.75,0-2.62,0-.21.1-.29.32-.29h2.49c.19,0,.25.09.26.28,0,.77,0,1.54,0,2.31,0,.54,0,.54-.54.54Z"/><path class="cls-2" d="M39.41,38.35c0,.42,0,.84,0,1.26,0,.21-.06.31-.29.3-.79,0-1.58,0-2.37,0-.43,0-.46,0-.47-.48,0-.74,0-1.48,0-2.22,0-.31.07-.36.37-.39.83-.07,1.66,0,2.49,0,.21,0,.28.08.28.28C39.4,37.48,39.41,37.92,39.41,38.35Z"/><path class="cls-2" d="M33.32,48.93H32c-.15,0-.26,0-.25-.21,0-.86,0-1.72,0-2.59a.31.31,0,0,1,.36-.33h2.09c.6.07.61.07.64.66,0,.75,0,1.51,0,2.26,0,.18-.12.2-.26.2Z"/><path class="cls-2" d="M27.21,42.84c0-.43,0-.86,0-1.29,0-.21.07-.3.29-.3l2.59,0c.19,0,.25.1.25.27q0,1.26,0,2.52c0,.21-.1.28-.29.28l-1.1,0-1.34,0c-.39,0-.4,0-.4-.41Z"/><path class="cls-2" d="M27.21,38.32V37c0-.2.07-.28.28-.28.86,0,1.73,0,2.59.06.19,0,.26.08.26.26,0,.85,0,1.69,0,2.54,0,.19-.09.26-.26.26l-1.79,0c-.26,0-.52,0-.78,0s-.31-.09-.3-.31C27.22,39.17,27.21,38.74,27.21,38.32Z"/><path class="cls-2" d="M30.34,47.35c0,.42,0,.84,0,1.26,0,.19-.07.27-.27.27l-2.57,0c-.22,0-.3-.07-.29-.29,0-.84,0-1.68,0-2.52,0-.27.17-.32.38-.32.69,0,1.39,0,2.09,0h.12c.5,0,.5-.06.5.52Z"/><path class="cls-2" d="M33.31,32.23c.43,0,.85,0,1.28,0,.21,0,.3.08.3.3q0,1.24,0,2.49c0,.22-.08.29-.3.29H32c-.22,0-.3-.07-.3-.29q0-1.25,0-2.49c0-.22.08-.3.3-.3C32.45,32.24,32.88,32.23,33.31,32.23Z"/><path class="cls-2" d="M33.33,36.76h1.29c.21,0,.29.05.28.29,0,.63,0,1.26,0,1.89,0,.24,0,.48,0,.73s-.06.18-.19.18H32a.16.16,0,0,1-.18-.18c0-.9-.06-1.8-.06-2.7,0-.17.1-.21.24-.21Z"/><path class="cls-2" d="M48.43,33.79c0,.41,0,.82,0,1.23,0,.22-.09.29-.3.29-.82,0-1.65,0-2.47,0-.23,0-.31-.08-.31-.31q0-1.23,0-2.46c0-.24.09-.31.32-.31q1.23,0,2.46,0c.22,0,.31.08.3.3C48.42,33,48.43,33.37,48.43,33.79Z"/><path class="cls-2" d="M43.9,33.77c0,.43,0,.86,0,1.28,0,.19-.07.26-.26.26H41.11c-.18,0-.25-.08-.25-.26V32.51c0-.19.07-.28.26-.28q1.26,0,2.52,0c.2,0,.27.09.27.28C43.9,32.93,43.9,33.35,43.9,33.77Z"/><path class="cls-2" d="M36.27,42.63c0-.32,0-.64,0-1a.31.31,0,0,1,.34-.37c.52,0,1,0,1.58,0,.24,0,.27.06.14.27-.39.65-.8,1.3-1.14,2-.11.21-.2.42-.3.63s-.16.27-.35.24-.2-.19-.22-.35A10.86,10.86,0,0,1,36.27,42.63Z"/><path class="cls-2" d="M42.12,36.76a8.62,8.62,0,0,1,1.1,0c.07,0,.18,0,.2.05s-.09.14-.16.19c-.57.35-1.13.72-1.67,1.13l-.52.4c-.12.1-.21.1-.21-.09V37c0-.17.1-.21.24-.21Z"/><path class="cls-2" d="M52,47c0,1,0,1.77,0,2.57a.3.3,0,0,0,.23.33l4.27,1.66c.29.11.57.23.86.37A1.52,1.52,0,0,1,58,53.89a1.44,1.44,0,0,1-1.84.88c-1-.34-2-.71-3.05-1.1s-2-.83-3-1.18a1.86,1.86,0,0,1-1.29-1.93c0-.14,0-.27,0-.41,0-1.84,0-3.69,0-5.54a7.16,7.16,0,0,1,.05-.8A1.46,1.46,0,0,1,50,42.65a1.87,1.87,0,0,1,1.27.21A1.57,1.57,0,0,1,52,44.25C52.05,45.23,52,46.21,52,47Z"/></g></g></svg>