<svg xmlns="http://www.w3.org/2000/svg" viewBox="0 0 75.38 75.28"><defs><style>.cls-1{fill:#1976d3;}</style></defs><title>call</title><g id="Layer_2" data-name="Layer 2"><g id="Layer_1-2" data-name="Layer 1"><path class="cls-1" d="M57.34,75.26c-5.62-.14-11-2.08-16.16-4.67C31.73,65.86,23.93,59,16.82,51.32a73.27,73.27,0,0,1-13.48-20,39.13,39.13,0,0,1-3.27-12C-.25,16,.42,13.19,3,10.82c3.25-3,6.32-6.17,9.38-9.35,2.37-2.47,5-1.61,6.37,1C21.49,7.68,24.27,12.92,27,18.16a4.5,4.5,0,0,1-.82,5.35C25,24.75,23.82,26,22.59,27.14a2,2,0,0,0-.6,2.25,25.1,25.1,0,0,0,4.85,8.53C31,43,35.62,47.7,41.28,51.21a15.71,15.71,0,0,0,4.83,2.17,2,2,0,0,0,2.07-.65q1.93-2,3.93-4a5,5,0,0,1,6.21-.81q7.46,4.38,14.89,8.8c1.85,1.1,2.5,2.55,2,4.27A4.22,4.22,0,0,1,74,62.82C70.49,66.34,67,69.87,63.38,73.36,61.78,74.93,59.76,75.38,57.34,75.26Z"/></g></g></svg>