<svg xmlns="http://www.w3.org/2000/svg" viewBox="0 0 41.88 32.86"><defs><style>.cls-1{fill:#009f76;}</style></defs><title>Car spots icon</title><g id="Layer_2" data-name="Layer 2"><g id="Layer_1-2" data-name="Layer 1"><path class="cls-1" d="M41.88,14.78a3.44,3.44,0,0,0-2.82-3.46.69.69,0,0,1-.65-.56C38,9.16,37.5,7.57,37,6h0C36.38,4.3,35.51,1.21,35.14.9S25.59,0,20.47,0,8.87.45,7.59.46H7.52A1.51,1.51,0,0,0,6.14,1.55v0a0,0,0,0,1,0,0h0v0C5.25,4.6,4.39,7.54,3.56,10.48a1.1,1.1,0,0,1-1,.92,3.21,3.21,0,0,0-2.59,3c0,4,0,8.06,0,12.08,0,.49.2.64.64.63.63,0,1.27,0,1.9,0s.79.16.77.75c0,1.31,0,2.62,0,3.93a.71.71,0,0,0,.6.81,8.08,8.08,0,0,0,3.94,0,.81.81,0,0,0,.72-.93c0-1.22,0-2.45,0-3.67,0-.89,0-.89.87-.89H20.93c3.88,0,7.76,0,11.64,0,.58,0,.79.18.77.76,0,1.31,0,2.62,0,3.93a.68.68,0,0,0,.55.78,8.15,8.15,0,0,0,4.19,0,.68.68,0,0,0,.58-.77c0-.95,0-1.9,0-2.85,0-1.83,0-1.83,1.84-1.83,1.39,0,1.38,0,1.38-1.4C41.86,22.08,41.81,18.43,41.88,14.78ZM7.59,21.55a3.49,3.49,0,0,1-3.48-3.64,3.56,3.56,0,1,1,7.11.22A3.5,3.5,0,0,1,7.59,21.55ZM20.9,11.28H6.42c-.74,0-.75,0-.54-.74.68-2.41,1.38-4.82,2.06-7.23.11-.4.3-.64.72-.65a9.08,9.08,0,0,0,1-.07h0c.52-.27,10.3-1.38,20.43-.2,1,0,2,.15,3,.22a.83.83,0,0,1,.81.72Q35,7,36.06,10.61c.17.57,0,.68-.55.68ZM34.11,21.55a3.55,3.55,0,0,1,.2-7.09A3.45,3.45,0,0,1,37.76,18,3.41,3.41,0,0,1,34.11,21.55Z"/></g></g></svg>