<?xml version="1.0" encoding="utf-8"?>
<!-- Generator: Adobe Illustrator 23.0.0, SVG Export Plug-In . SVG Version: 6.00 Build 0)  -->
<svg version="1.1" id="Layer_1" xmlns="http://www.w3.org/2000/svg" xmlns:xlink="http://www.w3.org/1999/xlink" x="0px" y="0px"
	 viewBox="0 0 123 123" style="enable-background:new 0 0 123 123;" xml:space="preserve">
<style type="text/css">
	.st0{fill:none;stroke:#FFFFFF;stroke-miterlimit:10;}
	.st1{fill:#FFFFFF;}
</style>
<title>Bike unselect</title>
<g>
	<g id="Layer_1-2">
		<path class="st0" d="M54,17.5L54,17.5c-20.1,0.3-36.2,16.9-35.9,37.1C18.5,74.2,34.3,90.1,54,90.4l0,0
			c20.1,0.3,36.7-15.7,37.1-35.9S75.3,17.8,55.2,17.5C54.8,17.5,54.4,17.5,54,17.5z"/>
		<path class="st1" d="M74.9,52.3c0-1.7-1.2-3.1-2.8-3.5c-0.3,0-0.6-0.3-0.7-0.6c-0.4-1.6-0.9-3.2-1.4-4.8l0,0
			c-0.7-1.7-1.5-4.8-1.9-5.1c-0.4-0.3-9.5-0.9-14.7-0.9S41.9,38,40.6,38h-0.1c-0.6,0-1.2,0.5-1.4,1.1l0,0l0,0l0,0l0,0
			c-0.9,2.9-1.7,5.9-2.5,8.8c-0.1,0.5-0.5,0.8-0.9,0.9C34.1,49.1,33,50.4,33,52c0,4,0,8,0,12c0,0.5,0.2,0.6,0.7,0.6
			c0.6,0,1.3,0,1.9,0c0.6,0,0.8,0.2,0.8,0.8c0,1.3,0,2.6,0,3.9c-0.1,0.4,0.2,0.7,0.6,0.8c0,0,0,0,0,0c1.3,0.3,2.6,0.3,3.9,0
			c0.4-0.1,0.8-0.5,0.7-0.9c0,0,0,0,0,0c0-1.2,0-2.4,0-3.7c0-0.9,0-0.9,0.9-0.9h11.5c3.9,0,7.8,0,11.6,0c0.6,0,0.8,0.2,0.8,0.8
			c0,1.3,0,2.6,0,3.9c-0.1,0.4,0.2,0.7,0.6,0.8c1.4,0.4,2.8,0.4,4.2,0c0.4-0.1,0.6-0.4,0.6-0.8c0,0,0,0,0,0c0-1,0-1.9,0-2.8
			c0-1.8,0-1.8,1.8-1.8c1.4,0,1.4,0,1.4-1.4C74.9,59.6,74.8,56,74.9,52.3z M40.6,59.1c-1.9,0-3.5-1.6-3.5-3.5c0,0,0-0.1,0-0.1
			c0-2,1.6-3.6,3.5-3.6c2,0,3.6,1.6,3.6,3.5c0,0.1,0,0.2,0,0.3C44.2,57.6,42.6,59.1,40.6,59.1C40.6,59.1,40.6,59.1,40.6,59.1z
			 M53.9,48.8H39.4c-0.8,0-0.8,0-0.6-0.7c0.7-2.4,1.4-4.8,2.1-7.2c0.1-0.4,0.3-0.6,0.7-0.6s0.7,0,1-0.1l0,0
			c0.5-0.3,10.3-1.4,20.4-0.2c1,0,2,0.2,3,0.2c0.4,0,0.8,0.3,0.8,0.7c0.7,2.4,1.4,4.9,2.1,7.3c0.2,0.6,0,0.7-0.5,0.7L53.9,48.8z
			 M67.1,59.1c-1.9,0-3.5-1.7-3.4-3.6c0,0,0-0.1,0-0.1c0.1-2,1.8-3.4,3.8-3.3c1.8,0.1,3.3,1.6,3.3,3.5c0,1.9-1.4,3.5-3.3,3.5
			C67.3,59.1,67.2,59.1,67.1,59.1z"/>
	</g>
</g>
</svg>
