<svg xmlns="http://www.w3.org/2000/svg" viewBox="0 0 53.74 50.72"><defs><style>.cls-1{fill:#1976d3;}</style></defs><title>car wash - blue</title><g id="Layer_2" data-name="Layer 2"><g id="Layer_1-2" data-name="Layer 1"><path class="cls-1" d="M53.74,27.94V25.8a7.14,7.14,0,0,0-1.88-3.38.84.84,0,0,1-.23-.7,3.81,3.81,0,0,0-1.74-3.45.91.91,0,0,1-.42-.87,5.14,5.14,0,0,0-2.53-4.8,4.79,4.79,0,0,0-5.33-.11c-.41.24-.61.24-.91-.15a3.56,3.56,0,0,0-3.13-1.63,1.1,1.1,0,0,1-1.11-.51,3.69,3.69,0,0,0-5.09-1.08c-.46.29-.69.2-1-.14A4.54,4.54,0,0,0,24,8.55c-.75.62-1.3.88-2.21.35a2.39,2.39,0,0,1-1-.87,5.11,5.11,0,0,0-4.35-2.7,5.34,5.34,0,0,0-5.6,4.6c-.09.54-.28.77-.83.84a5.11,5.11,0,0,0-3.35,1.86.65.65,0,0,1-.66.26,4.15,4.15,0,0,0-4.25,2,4.27,4.27,0,0,0,1.11,5.78c.5.4.53.67.09,1A6.76,6.76,0,0,0,0,25.8v2.14a8,8,0,0,0,1.25,2.61.4.4,0,0,1,0,.58A6.62,6.62,0,0,0,0,33.41v2a6.71,6.71,0,0,0,1.13,2.15.81.81,0,0,1,.16.91,4.78,4.78,0,0,0,1,4.73,1.12,1.12,0,0,0,1.67.25,1.14,1.14,0,0,0,.12-1.65,3.18,3.18,0,0,1-.38-3.51,1.12,1.12,0,0,0-.31-1.49,3.2,3.2,0,0,1,.15-5A1.12,1.12,0,0,0,3.63,30a5.75,5.75,0,0,1-.82-1A4.18,4.18,0,0,1,4.55,23.1c.42-.23.85-.46.89-1s.31-.58.71-.66a4.3,4.3,0,0,0,2.5-7.1c-.25-.31-.18-.46.07-.67a2.75,2.75,0,0,1,2.66-.63,1.27,1.27,0,0,0,1.7-1.68,2.73,2.73,0,0,1,.62-2.67,3.12,3.12,0,0,1,5.38,1,1.46,1.46,0,0,0,1.53,1.12A1.92,1.92,0,0,1,22,11.6a1.16,1.16,0,0,0,2.07-.2,3.13,3.13,0,0,1,5.54,0,1.16,1.16,0,0,0,2,.21,2,2,0,0,1,3.6.67,1.19,1.19,0,0,0,1.66.79,2.07,2.07,0,0,1,2.69,1.47c.37,1.15,1.24,1.36,2.1.52A3.14,3.14,0,0,1,47.1,18a1.2,1.2,0,0,0,.8,1.52,2,2,0,0,1,1.36,2.61,1.26,1.26,0,0,0,.44,1.27,6.75,6.75,0,0,1,.79.72,4.23,4.23,0,0,1-.29,5.81c-.71.77-.68,1.33.12,2a3.1,3.1,0,0,1-.14,5c-.89.68-1,1.15-.35,2a3.11,3.11,0,0,1,0,3.76c-.5.69-.47,1.38.08,1.79a1.19,1.19,0,0,0,1.74-.42,5,5,0,0,0,.59-5.42c-.12-.27-.23-.48,0-.74a5.86,5.86,0,0,0,1.51-2.66v-1.9a6.62,6.62,0,0,0-1.22-2.28.4.4,0,0,1,0-.58A7.94,7.94,0,0,0,53.74,27.94ZM5.36,19.25a2,2,0,0,1-2-2.07,2,2,0,0,1,2.06-2,2.06,2.06,0,0,1,2.06,2.09A2,2,0,0,1,5.36,19.25Z"/><path class="cls-1" d="M29.41,6.16a3.28,3.28,0,0,0,1.4-4.52,3.69,3.69,0,0,0-2-1.64H27.11l-.59.27A3.26,3.26,0,0,0,25,4.72,3.26,3.26,0,0,0,29.41,6.16Zm-1.53-3.9A1,1,0,0,1,29,3.19a1,1,0,0,1-2,.08A1,1,0,0,1,27.88,2.26Z"/><path class="cls-1" d="M44.05,9.76A4.43,4.43,0,0,0,48.43,5.4,4.35,4.35,0,0,0,44.11,1a4.4,4.4,0,0,0-4.42,4.29A4.47,4.47,0,0,0,44.05,9.76Zm0-6.43a2,2,0,0,1,2,2.06,2,2,0,0,1-2.06,2.06A2.06,2.06,0,0,1,42,5.37,2,2,0,0,1,44.08,3.33Z"/><path class="cls-1" d="M45.81,28.5a.74.74,0,0,1-.68-.58c-.46-1.65-.94-3.3-1.42-4.94h0c-.67-1.72-1.57-4.91-2-5.23s-9.85-.92-15.13-.92-12,.46-13.29.47h0a.06.06,0,0,1-.06,0h0a1.55,1.55,0,0,0-1.42,1.12v0s0,0,0,0h0v0c-.89,3-1.78,6.06-2.64,9.1a1.11,1.11,0,0,1-1,.94A3.33,3.33,0,0,0,5.52,31.7c0,4.16,0,8.32,0,12.47,0,.5.21.65.66.64.66,0,1.31,0,2,0s.82.16.8.77c0,1.35,0,2.7,0,4a.72.72,0,0,0,.62.84,8.37,8.37,0,0,0,4.07,0,.83.83,0,0,0,.73-1c0-1.26,0-2.52,0-3.79,0-.91,0-.91.9-.91H27.1c4,0,8,0,12,0,.59,0,.81.18.79.79,0,1.34,0,2.69,0,4a.7.7,0,0,0,.57.81,8.37,8.37,0,0,0,4.33,0,.7.7,0,0,0,.59-.79c0-1,0-2,0-2.94,0-1.89,0-1.89,1.9-1.89,1.43,0,1.42,0,1.42-1.45,0-3.77,0-7.53,0-11.3A3.53,3.53,0,0,0,45.81,28.5ZM13.33,39.05a3.61,3.61,0,0,1-3.59-3.76,3.67,3.67,0,1,1,7.34.23A3.61,3.61,0,0,1,13.33,39.05ZM27.07,28.46H12.13c-.77,0-.77,0-.56-.76.71-2.48,1.43-5,2.12-7.46.12-.41.31-.67.75-.67a9.61,9.61,0,0,0,1.07-.07h0c.54-.28,10.63-1.42,21.08-.21,1,0,2.06.16,3.09.23a.84.84,0,0,1,.84.74c.71,2.51,1.43,5,2.18,7.51.18.59,0,.71-.56.7C37.12,28.45,32.1,28.46,27.07,28.46ZM40.7,39.05a3.66,3.66,0,1,1,3.77-3.62A3.53,3.53,0,0,1,40.7,39.05Z"/></g></g></svg>