<svg xmlns="http://www.w3.org/2000/svg" viewBox="0 0 96.96 89.11"><defs><style>.cls-1{fill:#1976d3;}</style></defs><title>chat</title><g id="Layer_2" data-name="Layer 2"><g id="Layer_1-2" data-name="Layer 1"><path class="cls-1" d="M78.68,35.91c0,16.28-12.15,30.72-29.28,34.82A41.37,41.37,0,0,1,25,69.31a5.19,5.19,0,0,0-4.44.16c-3.39,1.64-6.87,3.09-10.31,4.62C9,74.67,7.61,75,6.38,74s-1-2.22-.71-3.55C6.4,67,7,63.57,7.74,60.17A4.27,4.27,0,0,0,7,56.35C-5.23,39.18-1,17.89,16.7,6.55,35.93-5.73,62.1-.2,73.76,18.63A32.8,32.8,0,0,1,78.68,35.91ZM39.37,41.85a3.93,3.93,0,0,0,4.06-4.21,3.82,3.82,0,0,0-4.25-4,4.1,4.1,0,1,0,.19,8.19Zm-12-4.19a4,4,0,0,0-4.29-4,4.1,4.1,0,1,0,.18,8.19A4,4,0,0,0,27.39,37.66Zm32.1.16a3.8,3.8,0,0,0-4-4.15,3.79,3.79,0,0,0-4.15,4,3.79,3.79,0,0,0,4,4.15A3.81,3.81,0,0,0,59.49,37.82Z"/><path class="cls-1" d="M31.11,76.15a11.89,11.89,0,0,1,4.27.11C55.51,78.16,76.51,66,81.61,45.15A36.23,36.23,0,0,0,80.46,24c-.3-.85-1.43-1.94-.36-2.68.73-.5,1.63.57,2.36,1.08A33.83,33.83,0,0,1,90.7,69.74a6.34,6.34,0,0,0-1.26,5.81c.81,3.1,1.26,6.3,1.94,9.44.29,1.36.29,2.58-.86,3.51s-2.4.64-3.63.09c-3.11-1.39-6.28-2.64-9.3-4.2a7.9,7.9,0,0,0-6.54-.4c-13.57,4.38-26.29,2.54-38-5.71C32.34,77.78,31.43,77.41,31.11,76.15Z"/></g></g></svg>