<?xml version="1.0" encoding="utf-8"?>
<!-- Generator: Adobe Illustrator 23.0.0, SVG Export Plug-In . SVG Version: 6.00 Build 0)  -->
<svg version="1.1" id="Layer_1" xmlns="http://www.w3.org/2000/svg" xmlns:xlink="http://www.w3.org/1999/xlink" x="0px" y="0px"
	 viewBox="0 0 37.9 37.7" style="enable-background:new 0 0 37.9 37.7;" xml:space="preserve">
<style type="text/css">
	.st0{fill:#1976D3;}
</style>
<g>
	<path class="st0" d="M35.5,8.5l-27,27c-1.7,1.7-4.5,1.7-6.2,0l0,0c-1.7-1.7-1.7-4.5,0-6.2l27-27c1.7-1.7,4.5-1.7,6.2,0l0,0
		C37.2,4,37.2,6.7,35.5,8.5z"/>
</g>
<g>
	<path class="st0" d="M29.3,35.5l-27-27C0.6,6.7,0.6,4,2.3,2.3l0,0c1.7-1.7,4.5-1.7,6.2,0l27,27c1.7,1.7,1.7,4.5,0,6.2l0,0
		C33.8,37.2,31,37.2,29.3,35.5z"/>
</g>
</svg>
