<?xml version="1.0" encoding="utf-8"?>
<!-- Generator: Adobe Illustrator 23.0.0, SVG Export Plug-In . SVG Version: 6.00 Build 0)  -->
<svg version="1.1" id="Layer_1" xmlns="http://www.w3.org/2000/svg" xmlns:xlink="http://www.w3.org/1999/xlink" x="0px" y="0px"
	 viewBox="0 0 42.5 42.5" style="enable-background:new 0 0 42.5 42.5;" xml:space="preserve">
<style type="text/css">
	.st0{fill:#1976D3;}
</style>
<title>Location target</title>
<g>
	<g id="Layer_1-2">
		<path class="st0" d="M19.4,3.6c0-0.5,0-1.1,0-1.6c0-1.1,0.9-2,2-2c1.1,0,2,0.9,2,2c0,1.1,0,2.2,0,3.2c0,0.4,0.1,0.5,0.5,0.6
			c6.6,1.1,11.7,6.3,12.8,12.9c0.1,0.3,0.2,0.5,0.5,0.5h3.1c1.1-0.1,2.1,0.8,2.1,1.9c0.1,1.1-0.8,2.1-1.9,2.1
			c-1.1,0.1-2.1,0.1-3.2,0c-0.4,0-0.6,0.1-0.7,0.6c-1.4,6.6-5.3,10.8-11.8,12.6c-0.3,0.1-0.5,0.1-0.8,0.1c-0.5,0-0.7,0.2-0.7,0.8
			c0,1,0,2,0,3c0,1.1-0.9,2-2,2s-2-0.9-2-2c0-1.1,0-2.1,0-3.2c0.1-0.3-0.1-0.5-0.4-0.6c0,0-0.1,0-0.1,0c-6.4-1.3-10.6-5.1-12.5-11.4
			c-0.1-0.4-0.3-0.8-0.3-1.2c0-0.5-0.3-0.6-0.8-0.6c-0.9,0-1.8,0-2.6,0c-0.4,0-0.8-0.1-1.2-0.2c-1.1-0.2-1.8-1.3-1.6-2.3
			s1.2-1.8,2.3-1.6l0,0c1.1,0,2.1,0,3.2,0c0.4,0,0.5-0.1,0.6-0.5C7.2,12.2,12.4,7,18.9,5.9c0.4-0.1,0.6-0.2,0.5-0.6
			C19.4,4.8,19.4,4.2,19.4,3.6z M21.4,9.8C15.1,9.8,10,15,10,21.3s5.2,11.5,11.5,11.5c6.3,0,11.4-5.1,11.4-11.5
			C33,15,28,9.9,21.7,9.8C21.6,9.8,21.6,9.8,21.4,9.8L21.4,9.8z"/>
		<path class="st0" d="M21.5,14.5c3.7,0,6.7,3.1,6.7,6.8s-3.1,6.7-6.8,6.7s-6.7-3.1-6.7-6.8c0,0,0,0,0,0c0-3.7,3-6.7,6.6-6.7
			C21.4,14.5,21.5,14.5,21.5,14.5z"/>
	</g>
</g>
</svg>
