<?xml version="1.0" encoding="utf-8"?>
<!-- Generator: Adobe Illustrator 23.0.0, SVG Export Plug-In . SVG Version: 6.00 Build 0)  -->
<svg version="1.1" id="Layer_1" xmlns="http://www.w3.org/2000/svg" xmlns:xlink="http://www.w3.org/1999/xlink" x="0px" y="0px"
	 viewBox="0 0 42.5 43.3" style="enable-background:new 0 0 42.5 43.3;" xml:space="preserve">
<style type="text/css">
	.st0{fill:#A3A3A3;}
</style>
<g>
	<path class="st0" d="M19.2,4c0-0.5,0-1.1,0-1.6c0-1.1,0.9-2,2-2c1.1,0,2,0.9,2,2c0,1.1,0,2.2,0,3.3c0,0.4,0.1,0.5,0.5,0.6
		c6.7,1.2,11.8,6.3,12.9,12.9c0.1,0.4,0.2,0.5,0.6,0.5c1,0,2.1,0,3.1,0c1.2,0,2.1,0.8,2.1,1.9c0.1,1.1-0.7,2-1.9,2.2
		c-1.1,0.1-2.1,0-3.2,0c-0.4,0-0.6,0.1-0.7,0.6c-1.4,6.6-5.4,10.8-11.9,12.6c-0.3,0.1-0.5,0.1-0.8,0.2c-0.5,0-0.7,0.2-0.7,0.8
		c0,1,0,2,0,3c0,1.2-0.9,2-2,2c-1.1,0-2-0.9-2-2c0-1.1,0-2.1,0-3.2c0-0.4-0.1-0.5-0.5-0.6C12.2,35.8,8.1,32,6.1,25.7
		c-0.1-0.4-0.2-0.9-0.3-1.3c0-0.5-0.3-0.6-0.8-0.6c-0.9,0-1.8,0-2.7,0c-0.4,0-0.8,0-1.2-0.2c-0.9-0.4-1.4-1.3-1.2-2.2
		c0.2-1,1-1.7,2-1.7c1.1,0,2.1,0,3.2,0c0.4,0,0.5-0.1,0.6-0.5c1.1-6.6,6.3-11.8,12.9-12.9c0.4-0.1,0.6-0.2,0.5-0.6
		C19.2,5.1,19.2,4.5,19.2,4z M21.3,10.1C15.5,10,9.8,14.7,9.7,21.6c-0.1,6.4,5,11.6,11.4,11.6c6.4,0.1,11.6-4.9,11.7-11.5
		C32.9,15,27.4,10.1,21.3,10.1z"/>
	<path class="st0" d="M21.3,14.9c3.3-0.1,6.8,2.6,6.7,6.8c0,3.7-2.9,6.7-6.8,6.7c-3.9,0-6.8-3-6.8-6.9
		C14.5,17.9,17.5,14.9,21.3,14.9z"/>
</g>
</svg>
