<svg xmlns="http://www.w3.org/2000/svg" viewBox="0 0 41.46 46.04"><defs><style>.cls-1{fill:#bfbfbf;}</style></defs><title>disabled parking</title><g id="Layer_2" data-name="Layer 2"><g id="Layer_1-2" data-name="Layer 1"><path class="cls-1" d="M16.06,19.22c0-3.35,0-6.71,0-10.06a.9.9,0,0,0-.42-.85,4.51,4.51,0,0,1-1.74-4.75,4.65,4.65,0,0,1,9.17.9,4.31,4.31,0,0,1-1.87,3.86.89.89,0,0,0-.46.82c0,2.14,0,4.27,0,6.41,0,.44.16.55.57.54q3.12,0,6.24,0A2.23,2.23,0,0,1,30,18.44a2.29,2.29,0,0,1-2.46,2.34c-2.05,0-4.09,0-6.14,0-.49,0-.65.14-.64.64,0,1.07,0,2.15,0,3.22,0,.48.14.62.61.62,3,0,6,0,9.05,0a1,1,0,0,1,1,.65c2.07,4.18,4.17,8.34,6.24,12.52a.93.93,0,0,0,1,.64,2.8,2.8,0,0,1,1.43.19A2.37,2.37,0,0,1,41.41,42a2.18,2.18,0,0,1-2.16,1.75c-1,0-2.08,0-3.12,0a.75.75,0,0,1-.77-.44L28.54,30.46a.85.85,0,0,0-.88-.52H16.85c-.78,0-.78,0-.78-.77v-10Z"/><path class="cls-1" d="M11.6,13.23c0,.61,0,1.22,0,1.83a1,1,0,0,1-.54,1,13.85,13.85,0,0,0-5.71,7.4,13.65,13.65,0,0,0,6.06,15.92c5,2.86,9.89,2.51,14.72-.44.6-.37.59-.38,1,.21.64,1,1.27,2,1.92,3,.21.3.18.48-.14.69A18.72,18.72,0,0,1,19.7,46,17.85,17.85,0,0,1,7.1,42.11a17.78,17.78,0,0,1-7-12.31,17.83,17.83,0,0,1,5.06-15A18,18,0,0,1,11,10.76c.42-.18.59-.11.58.37C11.59,11.83,11.6,12.53,11.6,13.23Z"/></g></g></svg>