<svg xmlns="http://www.w3.org/2000/svg" viewBox="0 0 36.24 31.2"><defs><style>.cls-1{fill:#1976d3;}</style></defs><title>Fanorites</title><g id="Layer_2" data-name="Layer 2"><g id="Layer_1-2" data-name="Layer 1"><path class="cls-1" d="M36.24,10.86c-.1,3.08-1.65,6-3.89,8.64A61.19,61.19,0,0,1,21.63,29c-.34.25-.68.48-1,.71-3,2-2,2-5,0A54.62,54.62,0,0,1,3.11,18.5C.86,15.61-.49,12.4.17,8.65a9.8,9.8,0,0,1,6.72-8A9.59,9.59,0,0,1,17.1,2.72c.85.76,1.22.71,2.06,0A9.76,9.76,0,0,1,30.18,1,10.37,10.37,0,0,1,36.24,10.86Z"/></g></g></svg>