<?xml version="1.0" encoding="utf-8"?>
<!-- Generator: Adobe Illustrator 23.0.0, SVG Export Plug-In . SVG Version: 6.00 Build 0)  -->
<svg version="1.1" id="Layer_1" xmlns="http://www.w3.org/2000/svg" xmlns:xlink="http://www.w3.org/1999/xlink" x="0px" y="0px"
	 viewBox="0 0 207 207" style="enable-background:new 0 0 207 207;" xml:space="preserve">
<style type="text/css">
	.st0{fill:#FFFFFF;}
	.st1{fill:#1976D3;}
</style>
<title>female selected</title>
<g>
	<g>
		<g id="Layer_1-2">
			<image style="overflow:visible;opacity:0.15;enable-background:new    ;" width="207" height="207" xlink:href="ACB0EC77.png" >
			</image>
			<circle class="st0" cx="100.7" cy="100.6" r="88.3"/>
			<path class="st1" d="M132.2,82.8c0-17.4-14.1-31.5-31.5-31.6c-17.4,0-31.5,14.1-31.6,31.5c0,15.8,11.6,29.2,27.3,31.3v15.8H85.7
				v9.7h10.7v10.4h9.7v-10.3h10.7v-9.7h-10.7v-16C121.2,111.2,132.1,98.1,132.2,82.8z M77.7,82.8c0-12.7,10.3-23,23-23
				s23,10.3,23,23s-10.3,23-23,23l0,0C88,105.8,77.7,95.5,77.7,82.8z"/>
		</g>
	</g>
</g>
</svg>
