<?xml version="1.0" encoding="utf-8"?>
<!-- Generator: Adobe Illustrator 23.0.0, SVG Export Plug-In . SVG Version: 6.00 Build 0)  -->
<svg version="1.1" id="Layer_1" xmlns="http://www.w3.org/2000/svg" xmlns:xlink="http://www.w3.org/1999/xlink" x="0px" y="0px"
	 viewBox="0 0 207 207" style="enable-background:new 0 0 207 207;" xml:space="preserve">
<style type="text/css">
	.st0{fill:none;stroke:#FFFFFF;stroke-miterlimit:10;}
	.st1{fill:#FFFFFF;}
</style>
<title>female selected</title>
<g>
	<g>
		<g id="Layer_1-2">
			
				<image style="overflow:visible;opacity:0.15;enable-background:new    ;" width="209" height="209" xlink:href="484C2F0F.png"  transform="matrix(1 0 0 1 0 -1)">
			</image>
			<circle class="st0" cx="101.7" cy="100.5" r="88.3"/>
			<path class="st1" d="M133.2,82.7c0-17.4-14.1-31.5-31.5-31.5c-17.4,0-31.5,14.1-31.5,31.5c0,15.8,11.7,29.1,27.3,31.2v15.8H86.7
				v9.7h10.7v10.4h9.7v-10.4h10.7v-9.7h-10.7v-16C122.2,111,133.2,98,133.2,82.7z M78.7,82.7c0-12.7,10.3-23,23-23s23,10.3,23,23
				s-10.3,23-23,23S78.7,95.4,78.7,82.7L78.7,82.7z"/>
		</g>
	</g>
</g>
</svg>
