<svg xmlns="http://www.w3.org/2000/svg" viewBox="0 0 35.44 35.44"><defs><style>.cls-1{fill:#4b4c51;}</style></defs><title>Filter icon</title><g id="Layer_2" data-name="Layer 2"><g id="Layer_1-2" data-name="Layer 1"><path class="cls-1" d="M17.74,0c4.91,0,9.83,0,14.74,0a2.63,2.63,0,0,1,2.68,1.41,2.78,2.78,0,0,1-.47,3.08c-3.35,4.45-6.68,8.92-10,13.36a2.65,2.65,0,0,0-.59,1.73c0,2.65,0,5.31,0,8a2.85,2.85,0,0,1-1.41,2.63c-2.31,1.51-4.59,3.06-6.89,4.59a3.44,3.44,0,0,1-1.5.66,2.52,2.52,0,0,1-2.91-2.64c0-4.39,0-8.78,0-13.16a2.84,2.84,0,0,0-.61-1.8C7.42,13.39,4.11,9,.78,4.52A3.23,3.23,0,0,1,0,3,2.53,2.53,0,0,1,2.68,0Z"/></g></g></svg>