<?xml version="1.0" encoding="utf-8"?>
<!-- Generator: Adobe Illustrator 23.0.0, SVG Export Plug-In . SVG Version: 6.00 Build 0)  -->
<svg version="1.1" id="Layer_1" xmlns="http://www.w3.org/2000/svg" xmlns:xlink="http://www.w3.org/1999/xlink" x="0px" y="0px"
	 viewBox="0 0 86 86" style="enable-background:new 0 0 86 86;" xml:space="preserve">
<style type="text/css">
	.st0{fill:#A3A3A3;}
</style>
<g id="Layer_1-2">
	<path class="st0" d="M43,85.1c-23,0-41.7-18.7-41.7-41.7S19.9,1.7,43,1.7c23,0,41.7,18.7,41.7,41.7c0,0,0,0,0,0
		C84.7,66.5,66,85.1,43,85.1z M43,2.7C20.5,2.7,2.3,21,2.3,43.4S20.5,84.2,43,84.2s40.7-18.2,40.7-40.7c0,0,0,0,0,0
		C83.7,21,65.5,2.8,43,2.7z"/>
	<path class="st0" d="M51.4,42c0-0.9-0.6-1.7-1.5-1.8c-0.9,0-1.6,0.7-1.6,1.6c-0.1,0.6-0.1,1.1,0,1.7c0.4,2-0.4,4-2.2,5.1
		c-0.3,0.3-0.7,0.4-1.1,0.5c-3.3,0-6.5,0-9.8,0c-0.6,0-0.8-0.2-0.8-0.8c-0.1-1.5-0.6-2.9-1.4-4.2c-2.8-4.5-8.7-5.8-13.1-3
		c-4.5,2.8-5.8,8.7-3,13.1c2,3.2,5.6,4.9,9.3,4.4c3.3-0.4,6.2-2.5,7.5-5.5c0.2-0.6,0.8-0.9,1.4-0.9c1.8,0,3.6,0,5.4,0s3.6,0,5.4,0
		c0.8,0,1.5-0.3,2.1-0.8c1-1,1.9-1.9,3-2.8c0.5-0.4,0.8-1,0.7-1.7C51.4,45.4,51.4,43.7,51.4,42z M29.8,53c-2.1,2.8-6,3.4-8.9,1.3
		s-3.4-6-1.3-8.9c2.1-2.8,6-3.4,8.9-1.3c0.3,0.3,0.7,0.5,1,0.9c0.4,0.4,0.4,0.6-0.1,0.9c-1.8,1-3.5,2-5.3,2.9
		c-0.3,0.2-0.7,0.3-1,0.4c-0.7,0.2-1.2,0.9-1.1,1.6c0,0.8,0.7,1.4,1.5,1.4c1.1,0,2.1,0,3.2,0l0,0c1,0,1.9,0,2.8,0
		c0.2,0,0.5-0.1,0.6,0.2C30.1,52.6,30,52.8,29.8,53L29.8,53z"/>
	<path class="st0" d="M60,40.1c-0.4,0.1-0.8,0.2-1-0.2c-0.7-1.2-1.4-2.4-2.1-3.6c-0.1-0.1-0.1-0.3-0.2-0.4c-0.2-0.3-0.5-0.6-0.7-0.9
		c-1.9-3-3.8-6.1-5.6-9.2c-0.4-0.8-1.2-1.2-2.1-1.2c-1.6,0.1-3.3,0-4.9,0c-1.1,0-1.8,0.6-1.8,1.5c0,0.9,0.7,1.6,1.6,1.6
		c0,0,0.1,0,0.1,0c1.2,0,2.4,0,3.6,0c0.6-0.1,1.2,0.2,1.5,0.7c2.5,4.1,5.1,8.3,7.7,12.4c0.5,0.7,0.4,1.1-0.2,1.7c-2.2,2-3.2,5-2.7,8
		c0.7,5,5.1,8.6,10.2,8.2c4.9-0.4,8.6-4.5,8.8-9.4c0.1-5.3-4.2-9.6-9.4-9.6C61.7,39.7,60.9,39.9,60,40.1z M68.9,49.3
		c-0.1,3.6-2.8,6.3-7.1,6.3c-2.3-0.1-4.2-1.5-5.1-3.6c-1.1-2.3-0.7-5.1,1-7c0.4-0.4,0.6-0.4,0.9,0.1c0.7,1.2,1.4,2.4,2.2,3.5
		s1.5,1.3,2.3,0.7s0.9-1.4,0.3-2.4s-1.2-2.1-1.9-3.1c-0.4-0.6-0.3-0.8,0.4-0.9c3.6-0.3,6.7,2.3,7,5.8C68.9,48.9,68.9,49.1,68.9,49.3
		L68.9,49.3z"/>
	<path class="st0" d="M45.5,39.4H25.7c-0.5,0-1,0-1.5-0.1c-1-0.2-1.6-1-1.5-2c0.1-0.9,0.9-1.7,1.8-1.6c1.2,0,2.4,0,3.6,0
		c3.1,0.2,6.1,0.2,9.2,0c0.7,0,1.5-0.3,2.1-0.8c3.1-2.4,6.6-2.4,10.3-1.6c1.7,0.3,2.8,1.9,2.6,3.5c0.1,1.3-1,2.4-2.3,2.5
		c-0.1,0-0.1,0-0.2,0C48.2,39.4,46.6,39.4,45.5,39.4z"/>
	<path class="st0" d="M40.6,47.8c-1.1,0-2.3,0-3.4,0c-0.9,0.1-1.7-0.5-1.9-1.4c0-0.1,0-0.2,0-0.3c-0.2-1.2-0.2-2.4,0-3.6
		c0-0.8,0.7-1.5,1.6-1.4c0,0,0.1,0,0.1,0c2.4,0,4.9,0,7.3,0c0.8-0.1,1.6,0.5,1.7,1.4c0,0.1,0,0.2,0,0.3c0,1.1,0,2.1,0,3.2
		c0.1,1-0.6,1.8-1.6,1.9c-0.1,0-0.2,0-0.3,0H40.6L40.6,47.8z"/>
	<path class="st0" d="M56.9,36.3l-0.2-0.4c0-0.1-0.1-0.2-0.1-0.3c-0.6-1.5-0.2-2.6,1.2-3c1.2-0.5,2.6,0,3.2,1.2
		c0.4,1.3-0.3,2.8-1.6,3.3C58.5,37.4,57.5,37.1,56.9,36.3z"/>
</g>
</svg>
