<svg xmlns="http://www.w3.org/2000/svg" viewBox="0 0 45.29 43.04"><defs><style>.cls-1{fill:#1976d3;}</style></defs><title>History</title><g id="Layer_2" data-name="Layer 2"><g id="Layer_1-2" data-name="Layer 1"><path class="cls-1" d="M0,13c0-2.3,0-4.59,0-6.89C0,6,0,5.82.08,5.77S.32,5.9.42,6c1.5,1.5,3,3,4.5,4.51.24.25.36.24.53-.06A20.34,20.34,0,0,1,9.22,5.71a21.35,21.35,0,0,1,5.14-3.53,20.52,20.52,0,0,1,5-1.73A21,21,0,0,1,35.5,3.55a21.49,21.49,0,0,1,7.24,7.88,20.32,20.32,0,0,1,2.42,7.76A21.53,21.53,0,0,1,36,39.26a20.94,20.94,0,0,1-9.38,3.6,21.39,21.39,0,0,1-11.65-1.72,21.11,21.11,0,0,1-6.94-5A21.27,21.27,0,0,1,3.73,29.5c-.26-.66-.46-1.33-.7-2-.1-.27,0-.38.26-.38,1.38,0,2.75,0,4.12,0a.46.46,0,0,1,.49.34,18.15,18.15,0,0,0,3,5,17.28,17.28,0,0,0,5.82,4.42,16.6,16.6,0,0,0,7.59,1.52,16.43,16.43,0,0,0,8-2.35,17,17,0,0,0,8.14-11.89A16.73,16.73,0,0,0,36.93,11,17.27,17.27,0,0,0,32.6,7.16,16.56,16.56,0,0,0,27.2,5a16,16,0,0,0-4.53-.32A16.84,16.84,0,0,0,12.42,9a18.12,18.12,0,0,0-3.76,4.73.47.47,0,0,0,.11.67L14.43,20l.18.19c.1.12.06.2-.09.22H.55c-.53,0-.53,0-.53-.53Z"/><path class="cls-1" d="M20.33,17.14V11.8c0-.49,0-.51.49-.51h2.52c.47,0,.5,0,.5.52q0,4.24,0,8.51a.79.79,0,0,0,.43.77C27,22.7,29.68,24.33,32.4,26c.48.29.48.3.18.79-.44.72-.9,1.45-1.33,2.18-.15.26-.28.33-.57.15l-9-5.38c-.32-.19-.63-.39-1-.57a.62.62,0,0,1-.36-.65C20.34,20.69,20.33,18.91,20.33,17.14Z"/></g></g></svg>