<svg xmlns="http://www.w3.org/2000/svg" viewBox="0 0 28.98 28.98"><defs><style>.cls-1{fill:#1976d3;}</style></defs><title>info icon</title><g id="Layer_2" data-name="Layer 2"><g id="Layer_1-2" data-name="Layer 1"><path class="cls-1" d="M14.46,29A14.49,14.49,0,1,1,14.6,0,14.42,14.42,0,0,1,29,14.63,14.41,14.41,0,0,1,14.46,29Zm12.72-14.5A12.84,12.84,0,0,0,14.52,1.8,12.85,12.85,0,0,0,1.8,14.57a12.85,12.85,0,0,0,12.62,12.6A12.76,12.76,0,0,0,27.18,14.48Z" transform="translate(0 0)"/><path class="cls-1" d="M16.47,16.11V19c0,.86-.16,1.68,1.19,1.81.85.09.55,1.1.59,1.72a.82.82,0,0,1-.86,1c-1.67,0-3.34,0-5,0-.58,0-1-.27-.92-.9S11,21,12.06,20.76s1-.79,1-1.56c0-1.08,0-2.17,0-3.26,0-.83.07-1.54-1.09-1.81-.92-.21-.51-1.21-.52-1.89s.47-.8,1-.81h.27c4.47.06,3.59-.5,3.69,3.47C16.48,15.3,16.47,15.71,16.47,16.11Z" transform="translate(0 0)"/><path class="cls-1" d="M14.46,10.07a2.35,2.35,0,0,1-2.33-2.22,2.38,2.38,0,0,1,2.32-2.36A2.28,2.28,0,0,1,16.7,7.76,2.4,2.4,0,0,1,14.46,10.07Z" transform="translate(0 0)"/></g></g></svg>