<svg xmlns="http://www.w3.org/2000/svg" viewBox="0 0 31.7 34.84"><defs><style>.cls-1{fill:#4b4c51;}</style></defs><title>INR Dark grey</title><g id="Layer_2" data-name="Layer 2"><g id="Layer_1-2" data-name="Layer 1"><path class="cls-1" d="M31.7,3.48H23.89a9.5,9.5,0,0,1,2.39,3.44H31.7V10.4H27a8.19,8.19,0,0,1,0,1,10.85,10.85,0,0,1-2,6.64,12,12,0,0,1-5.7,4.06l8.36,12.74h-7L13.14,23.19H2.94V17.72h9q4.42,0,6.54-1.79a6,6,0,0,0,2.12-4.83v-.7H0V6.92H19.51a6.7,6.7,0,0,0-3.06-2.59,11.81,11.81,0,0,0-5-.85H0V0H31.7Z"/></g></g></svg>