<svg xmlns="http://www.w3.org/2000/svg" viewBox="0 0 42.5 42.5"><defs><style>.cls-1{fill:#a3a3a3;}</style></defs><title>Location target</title><g id="Layer_2" data-name="Layer 2"><g id="Layer_1-2" data-name="Layer 1"><path class="cls-1" d="M19.22,3.59c0-.54,0-1.07,0-1.6a2,2,0,0,1,4.07,0c0,1.08,0,2.17,0,3.25,0,.38.13.51.5.58A15.65,15.65,0,0,1,36.7,18.75c.06.35.2.48.55.47h3.11a2,2,0,0,1,.22,4.08,26.26,26.26,0,0,1-3.2,0c-.45,0-.61.14-.71.61q-2.12,9.91-11.92,12.58a3.47,3.47,0,0,1-.78.15c-.53,0-.71.24-.69.78,0,1,0,2,0,3a2,2,0,0,1-2,2,2,2,0,0,1-2-2c0-1.06,0-2.11,0-3.16a.5.5,0,0,0-.48-.6c-6.5-1.28-10.68-5.12-12.63-11.44A7.27,7.27,0,0,1,5.83,24c0-.51-.3-.63-.76-.62-.88,0-1.77,0-2.65,0a2.76,2.76,0,0,1-1.17-.21A2,2,0,0,1,2,19.22c1.07,0,2.14,0,3.2,0,.37,0,.54-.1.6-.48A15.65,15.65,0,0,1,18.68,5.83c.43-.07.56-.23.54-.64S19.22,4.12,19.22,3.59Zm2,6.15A11.54,11.54,0,1,0,32.8,21.33,11.44,11.44,0,0,0,21.26,9.74Z"/><path class="cls-1" d="M21.29,14.51a6.77,6.77,0,1,1-6.82,6.67A6.69,6.69,0,0,1,21.29,14.51Z"/></g></g></svg>