<?xml version="1.0" encoding="utf-8"?>
<!-- Generator: Adobe Illustrator 23.0.0, SVG Export Plug-In . SVG Version: 6.00 Build 0)  -->
<svg version="1.1" id="Layer_1" xmlns="http://www.w3.org/2000/svg" xmlns:xlink="http://www.w3.org/1999/xlink" x="0px" y="0px"
	 viewBox="0 0 207 207" style="enable-background:new 0 0 207 207;" xml:space="preserve">
<style type="text/css">
	.st0{fill:none;stroke:#FFFFFF;stroke-miterlimit:10;}
	.st1{fill:#FFFFFF;}
</style>
<title>female selected</title>
<g>
	<g id="Layer_1-2_1_">
		<circle class="st0" cx="100.8" cy="100.8" r="88.3"/>
		<path class="st1" d="M142.6,58.9h-31.2v9.7h13.8l-16.7,16.7c-14.2-10-33.9-6.5-43.9,7.7S58.1,127,72.3,137
			c14.2,10,33.9,6.5,43.9-7.7c7.9-11.2,7.6-26.2-0.7-37.2l17.4-17.4v15.4h9.7V68.6l0,0L142.6,58.9z M106.7,127.5c-9,9-23.5,9-32.5,0
			s-9-23.5,0-32.5c9-9,23.5-9,32.5,0C115.7,103.9,115.7,118.5,106.7,127.5C106.7,127.5,106.7,127.5,106.7,127.5z"/>
	</g>
</g>
</svg>
