<?xml version="1.0" encoding="utf-8"?>
<!-- Generator: Adobe Illustrator 23.0.0, SVG Export Plug-In . SVG Version: 6.00 Build 0)  -->
<svg version="1.1" id="Layer_1" xmlns="http://www.w3.org/2000/svg" xmlns:xlink="http://www.w3.org/1999/xlink" x="0px" y="0px"
	 viewBox="0 0 207 207" style="enable-background:new 0 0 207 207;" xml:space="preserve">
<style type="text/css">
	.st0{fill:#FFFFFF;}
	.st1{fill:#1976D3;}
</style>
<title>female selected</title>
<g>
	<g>
		<g id="Layer_1-2">
			<image style="overflow:visible;opacity:0.15;enable-background:new    ;" width="207" height="207" xlink:href="934583CF.png" >
			</image>
			<circle class="st0" cx="100.7" cy="100.6" r="88.3"/>
			<path class="st1" d="M146.1,60.4H115v9.7h13.8L112,86.9c-14.2-10-33.9-6.5-43.9,7.7s-6.5,33.9,7.7,43.9
				c14.2,10,33.9,6.5,43.9-7.7c7.9-11.2,7.6-26.2-0.7-37.2l17.4-17.4v15.4h9.7V70.1l0,0L146.1,60.4z M110.2,129c-9,9-23.5,9-32.5,0
				s-9-23.5,0-32.5c9-9,23.5-9,32.5,0C119.2,105.5,119.2,120,110.2,129C110.2,129,110.2,129,110.2,129z"/>
		</g>
	</g>
</g>
</svg>
