<svg xmlns="http://www.w3.org/2000/svg" viewBox="0 0 56.83 34.11"><defs><style>.cls-1{fill:#a3a3a3;}</style></defs><title>My vehicle bike</title><g id="Layer_2" data-name="Layer 2"><g id="Layer_1-2" data-name="Layer 1"><path class="cls-1" d="M36.23,17.33a1.67,1.67,0,0,0-1.54-1.75A1.65,1.65,0,0,0,33,17.22a7.61,7.61,0,0,0,0,1.72A4.74,4.74,0,0,1,30.88,24a2,2,0,0,1-1.15.48q-4.9,0-9.82,0c-.58,0-.79-.22-.85-.8a9.29,9.29,0,0,0-1.44-4.19A9.53,9.53,0,1,0,10.71,34a9.23,9.23,0,0,0,7.5-5.51,1.29,1.29,0,0,1,1.38-.86c1.81,0,3.62,0,5.43,0s3.62,0,5.43,0a2.74,2.74,0,0,0,2.08-.83c1-1,1.95-1.87,2.95-2.77a2.09,2.09,0,0,0,.74-1.66C36.2,20.72,36.23,19,36.23,17.33Zm-21.61,11a6.34,6.34,0,1,1-.39-8c.4.43.42.63-.13.93-1.77,1-3.5,2-5.26,2.94a9.2,9.2,0,0,1-1,.41,1.52,1.52,0,0,0-1.07,1.67,1.5,1.5,0,0,0,1.48,1.4c1.06,0,2.13,0,3.19,0h0c.95,0,1.89,0,2.84,0,.21,0,.52-.13.6.16S14.73,28.18,14.62,28.34Z"/><path class="cls-1" d="M44.8,15.42c-.41.12-.75.25-1-.24-.68-1.19-1.4-2.37-2.1-3.55-.06-.13-.13-.26-.2-.38-.22-.3-.46-.59-.66-.9-1.88-3-3.77-6.11-5.63-9.17A2.18,2.18,0,0,0,33.06,0c-1.63.06-3.27,0-4.91,0-1.09,0-1.82.61-1.84,1.5a1.63,1.63,0,0,0,1.77,1.61c1.2,0,2.41,0,3.61,0a1.4,1.4,0,0,1,1.49.73c2.54,4.14,5.08,8.27,7.68,12.37.47.74.36,1.12-.24,1.69a9,9,0,0,0-2.73,8A9.48,9.48,0,0,0,48.06,34a9.66,9.66,0,0,0,8.77-9.36A9.53,9.53,0,0,0,44.8,15.42Zm8.88,9.18c-.12,3.64-2.81,6.3-7.06,6.31a5.79,5.79,0,0,1-5.08-3.64,6.43,6.43,0,0,1,1-7c.35-.45.57-.42.86.08.7,1.19,1.42,2.36,2.17,3.51s1.5,1.27,2.3.73.89-1.4.27-2.41-1.24-2.07-1.9-3.07c-.38-.58-.25-.79.4-.88A6.46,6.46,0,0,1,53.68,24.6Z"/><path class="cls-1" d="M30.28,14.69H10.51A7.26,7.26,0,0,1,9,14.58a1.85,1.85,0,0,1,.32-3.66c1.21,0,2.42,0,3.62,0a78.61,78.61,0,0,0,9.21,0,3.79,3.79,0,0,0,2.06-.78c3.12-2.44,6.65-2.42,10.25-1.56a3.28,3.28,0,0,1,2.65,3.54,2.37,2.37,0,0,1-2.46,2.46C33,14.69,31.34,14.72,30.28,14.69Z"/><path class="cls-1" d="M25.36,23.14c-1.15,0-2.3,0-3.45,0A1.66,1.66,0,0,1,20,21.44a12.84,12.84,0,0,1,0-3.61,1.49,1.49,0,0,1,1.63-1.44q3.66,0,7.32,0a1.52,1.52,0,0,1,1.67,1.67c0,1.06,0,2.12,0,3.19a1.73,1.73,0,0,1-1.87,1.89H25.36Z"/><path class="cls-1" d="M41.67,11.63l-.2-.38c0-.11-.06-.22-.1-.33-.56-1.54-.15-2.56,1.22-3a2.48,2.48,0,0,1,3.16,1.29,2.58,2.58,0,0,1-1.62,3.25A2.27,2.27,0,0,1,41.67,11.63Z"/></g></g></svg>