<svg xmlns="http://www.w3.org/2000/svg" viewBox="0 0 65.39 25.42"><defs><style>.cls-1{fill:#1976d3;}</style></defs><title>My vehicle car</title><g id="Layer_2" data-name="Layer 2"><g id="Layer_1-2" data-name="Layer 1"><path class="cls-1" d="M27.83,0c7.73,0,14.09,1.61,19.4,6.13A14.4,14.4,0,0,0,55,9.51c1.27.18,2.53.45,3.78.74a8.59,8.59,0,0,1,6,4.78c1.68,3.32.1,6.33-3.57,6.78-1.73.22-2.69-.18-2.7-2.22,0-2.52-1.53-4.21-3.78-5.18a5.88,5.88,0,0,0-6.37,1A5.81,5.81,0,0,0,46.11,20c0,1.61-.76,1.91-2.08,1.9-7.64,0-15.27-.06-22.9,0-2.1,0-2.43-1-2.6-2.77a5.89,5.89,0,0,0-6.12-5.22,6.13,6.13,0,0,0-6,5.19c-.16,1,.36,2.53-1.37,2.65A4.59,4.59,0,0,1,.65,20a3.65,3.65,0,0,1-.39-.82C-.88,16,1.89,9.72,5.05,8.69A39.53,39.53,0,0,0,15.32,3.5,20.9,20.9,0,0,1,27.83,0ZM15.18,8l.13.65H27.49c1.26,0,1.66-.78,1.34-1.78-.37-1.2.58-3.37-1.69-3.33A17.85,17.85,0,0,0,15.18,8ZM45,8.73c-3.14-3.28-7-4.52-11.15-5.14-.86-.13-2.06-.64-2.29.94-.3,2.12.54,4.14,1.88,4.17C37.18,8.78,40.93,8.73,45,8.73Z"/><path class="cls-1" d="M12.44,15a5.26,5.26,0,0,1,5.36,5.25,5.42,5.42,0,0,1-5.24,5.21,5.37,5.37,0,0,1-5.35-5.31A5.24,5.24,0,0,1,12.44,15Z"/><path class="cls-1" d="M47.1,20.18a5.29,5.29,0,0,1,10.57,0,5.43,5.43,0,0,1-5.19,5.27A5.28,5.28,0,0,1,47.1,20.18Z"/></g></g></svg>