<?xml version="1.0" encoding="utf-8"?>
<!-- Generator: Adobe Illustrator 23.0.0, SVG Export Plug-In . SVG Version: 6.00 Build 0)  -->
<svg version="1.1" id="Layer_1" xmlns="http://www.w3.org/2000/svg" xmlns:xlink="http://www.w3.org/1999/xlink" x="0px" y="0px"
	 viewBox="0 0 56.8 34.1" style="enable-background:new 0 0 56.8 34.1;" xml:space="preserve">
<style type="text/css">
	.st0{fill:#1976D3;}
</style>
<title>My vehicle bike</title>
<g>
	<g id="Layer_1-2">
		<path class="st0" d="M36.2,17.3c0-0.9-0.6-1.7-1.5-1.8c-0.9,0-1.7,0.7-1.7,1.6c0,0,0,0,0,0c-0.1,0.6-0.1,1.1,0,1.7
			c0.4,2-0.4,4-2.1,5.1c-0.3,0.3-0.7,0.4-1.1,0.5c-3.3,0-6.5,0-9.8,0c-0.6,0-0.8-0.2-0.9-0.8c-0.1-1.5-0.6-2.9-1.4-4.2
			c-2.8-4.5-8.7-5.8-13.1-3s-5.8,8.7-3,13.1c2,3.1,5.6,4.9,9.3,4.4c3.3-0.3,6.2-2.5,7.5-5.5c0.2-0.6,0.8-0.9,1.4-0.9
			c1.8,0,3.6,0,5.4,0s3.6,0,5.4,0c0.8,0,1.5-0.3,2.1-0.8c1-1,2-1.9,3-2.8c0.5-0.4,0.8-1,0.7-1.7C36.2,20.7,36.2,19,36.2,17.3z
			 M14.6,28.3c-2.1,2.8-6,3.4-8.9,1.3s-3.4-6-1.3-8.9s6-3.4,8.9-1.3c0.3,0.3,0.7,0.5,1,0.9c0.4,0.4,0.4,0.6-0.1,0.9
			c-1.8,1-3.5,2-5.3,2.9c-0.3,0.2-0.7,0.3-1,0.4c-0.7,0.2-1.2,0.9-1.1,1.7c0.1,0.8,0.7,1.4,1.5,1.4c1.1,0,2.1,0,3.2,0l0,0
			c0.9,0,1.9,0,2.8,0c0.2,0,0.5-0.1,0.6,0.2S14.7,28.2,14.6,28.3L14.6,28.3z"/>
		<path class="st0" d="M44.8,15.4c-0.4,0.1-0.8,0.3-1-0.2c-0.7-1.2-1.4-2.4-2.1-3.6c-0.1-0.1-0.1-0.3-0.2-0.4
			c-0.2-0.3-0.5-0.6-0.7-0.9c-1.9-3-3.8-6.1-5.6-9.2C34.8,0.4,34-0.1,33.1,0c-1.6,0.1-3.3,0-4.9,0c-1.1,0-1.8,0.6-1.8,1.5
			c0,0.9,0.7,1.6,1.6,1.6c0,0,0.1,0,0.1,0c1.2,0,2.4,0,3.6,0c0.6-0.1,1.2,0.2,1.5,0.7c2.5,4.1,5.1,8.3,7.7,12.4
			c0.5,0.7,0.4,1.1-0.2,1.7c-2.2,2-3.2,5-2.7,8c0.7,5,5.2,8.5,10.2,8.1c4.9-0.4,8.6-4.5,8.8-9.4c0-5.3-4.2-9.5-9.5-9.6
			C46.5,15.1,45.6,15.2,44.8,15.4z M53.7,24.6c-0.1,3.6-2.8,6.3-7.1,6.3c-2.3-0.1-4.2-1.5-5.1-3.6c-1.1-2.3-0.7-5.1,1-7
			c0.3-0.5,0.6-0.4,0.9,0.1c0.7,1.2,1.4,2.4,2.2,3.5s1.5,1.3,2.3,0.7s0.9-1.4,0.3-2.4s-1.2-2.1-1.9-3.1c-0.4-0.6-0.3-0.8,0.4-0.9
			c3.6-0.3,6.7,2.3,7,5.9C53.7,24.3,53.7,24.4,53.7,24.6z"/>
		<path class="st0" d="M30.3,14.7H10.5c-0.5,0-1,0-1.5-0.1c-1-0.2-1.6-1.2-1.4-2.2c0.2-0.8,0.9-1.4,1.8-1.5c1.2,0,2.4,0,3.6,0
			c3.1,0.2,6.1,0.2,9.2,0c0.7-0.1,1.5-0.3,2.1-0.8c3.1-2.4,6.6-2.4,10.3-1.6c1.7,0.3,2.8,1.9,2.7,3.5c0.1,1.3-1,2.4-2.3,2.5
			c-0.1,0-0.1,0-0.2,0C33,14.7,31.3,14.7,30.3,14.7z"/>
		<path class="st0" d="M25.4,23.1c-1.1,0-2.3,0-3.5,0c-0.9,0.1-1.8-0.5-1.9-1.4c0-0.1,0-0.2,0-0.3c-0.2-1.2-0.2-2.4,0-3.6
			c0-0.8,0.7-1.5,1.5-1.4c0,0,0.1,0,0.1,0c2.4,0,4.9,0,7.3,0c0.8-0.1,1.6,0.5,1.7,1.4c0,0.1,0,0.2,0,0.3c0,1.1,0,2.1,0,3.2
			c0.1,1-0.6,1.8-1.6,1.9c-0.1,0-0.2,0-0.3,0H25.4z"/>
		<path class="st0" d="M41.7,11.6l-0.2-0.4c0-0.1-0.1-0.2-0.1-0.3c-0.6-1.5-0.2-2.6,1.2-3c1.2-0.5,2.6,0.1,3.2,1.3
			c0.4,1.3-0.3,2.8-1.6,3.3C43.2,12.7,42.2,12.4,41.7,11.6z"/>
	</g>
</g>
</svg>
