<?xml version="1.0" encoding="utf-8"?>
<!-- Generator: Adobe Illustrator 23.0.0, SVG Export Plug-In . SVG Version: 6.00 Build 0)  -->
<svg version="1.1" id="Layer_1" xmlns="http://www.w3.org/2000/svg" xmlns:xlink="http://www.w3.org/1999/xlink" x="0px" y="0px"
	 viewBox="0 0 65.4 25.4" style="enable-background:new 0 0 65.4 25.4;" xml:space="preserve">
<style type="text/css">
	.st0{fill:#A3A3A3;}
</style>
<title>My vehicle car</title>
<g>
	<g id="Layer_1-2">
		<path class="st0" d="M27.8,0c7.7,0,14.1,1.6,19.4,6.1C49.4,8,52.1,9.2,55,9.5c1.3,0.2,2.5,0.4,3.8,0.7c2.6,0.6,4.9,2.3,6,4.8
			c1.7,3.3,0.1,6.3-3.6,6.8c-1.7,0.2-2.7-0.2-2.7-2.2c0-2.5-1.5-4.2-3.8-5.2c-2.1-1-4.6-0.6-6.4,1c-1.4,1.1-2.2,2.8-2.3,4.6
			c0,1.6-0.8,1.9-2.1,1.9c-7.6,0-15.3-0.1-22.9,0c-2.1,0-2.4-1-2.6-2.8c-0.3-3.1-3-5.4-6.1-5.2c-3,0-5.5,2.2-6,5.2
			c-0.2,1,0.4,2.5-1.4,2.6C3.4,22,1.7,21.3,0.6,20c-0.2-0.3-0.3-0.5-0.4-0.8C-0.9,16,1.9,9.7,5.1,8.7c3.7-1.2,7.1-3,10.3-5.2
			C19,1,23.4-0.2,27.8,0z M15.2,8l0.1,0.6h12.2c1.3,0,1.7-0.8,1.3-1.8c-0.4-1.2,0.6-3.4-1.7-3.3C22.7,3.5,18.5,5.1,15.2,8z M45,8.7
			c-3.1-3.3-7-4.5-11.2-5.1c-0.9-0.1-2.1-0.6-2.3,0.9c-0.3,2.1,0.5,4.1,1.9,4.2C37.2,8.8,40.9,8.7,45,8.7z"/>
		<path class="st0" d="M12.4,15c2.9-0.1,5.3,2.3,5.4,5.2c0,0,0,0.1,0,0.1c-0.1,2.8-2.4,5.1-5.2,5.2c-2.9,0-5.3-2.4-5.3-5.3
			C7.3,17.3,9.6,15,12.4,15z"/>
		<path class="st0" d="M47.1,20.2c0.1-2.9,2.6-5.2,5.5-5.1c2.7,0.1,4.9,2.3,5.1,5.1c-0.1,2.8-2.3,5.1-5.2,5.3
			C49.6,25.5,47.2,23.2,47.1,20.2C47.1,20.2,47.1,20.2,47.1,20.2z"/>
	</g>
</g>
</svg>
