<svg xmlns="http://www.w3.org/2000/svg" viewBox="0 0 32.24 50.15"><defs><style>.cls-1{fill:#1976d3;}</style></defs><title>My passes</title><g id="Layer_2" data-name="Layer 2"><g id="Layer_1-2" data-name="Layer 1"><path class="cls-1" d="M32.23,27c0,5.65,0,11.3,0,17,0,4-2.22,6.17-6.24,6.17q-10,0-19.92,0C2.14,50.12,0,47.93,0,44Q0,27.2,0,10.4C0,5.59,2.11,3.51,7,3.57c.6,0,1.21,0,1.81,0,1.13.06,1.87-.18,1.91-1.58a2,2,0,0,1,2.2-2C15,0,17.15,0,19.29,0a2.1,2.1,0,0,1,2.32,2.23c0,1.16.63,1.35,1.58,1.32,1.15,0,2.31,0,3.46,0a5.43,5.43,0,0,1,5.57,5.65c0,5.93,0,11.85,0,17.78ZM3.86,26.85h0c0,5.61,0,11.21,0,16.81,0,2,.45,2.48,2.4,2.48q9.79,0,19.6,0c2.26,0,2.52-.3,2.52-2.63,0-10.26,0-20.53,0-30.8,0-5.54.24-5.11-5.25-5.07H23C22,7.53,21.59,8,21.63,9c0,.77,0,1.54,0,2.31,0,2.83-.46,3.27-3.22,3.3H13.46c-2.2,0-2.84-.65-2.87-2.83,0-4.27,0-4.27-4.35-4.16-2.06,0-2.37.35-2.38,2.44C3.85,15.65,3.86,21.25,3.86,26.85ZM14.59,8.28c-.06.4-.1.61-.12.83-.07.86-.15,1.71,1.14,1.65,1,0,2.08.33,2.14-1.37,0-1.37-.19-2.73-.08-4.07S17.2,4,16.24,4s-1.94-.08-1.81,1.38C14.52,6.4,14.54,7.43,14.59,8.28Z"/><path class="cls-1" d="M16.05,43c-2.14,0-4.28,0-6.42,0C8,42.93,7,42.19,7.11,41c.14-1.42,1.11-1.91,2.42-1.91,4.45,0,8.89,0,13.34,0,1.42,0,2.41.91,2.27,2C25,42.49,24.07,43,22.8,43,20.55,42.94,18.3,43,16.05,43Z"/></g></g></svg>