<svg xmlns="http://www.w3.org/2000/svg" viewBox="0 0 58.55 34.35"><defs><style>.cls-1{fill:#1976d3;}</style></defs><title>My vehicles</title><g id="Layer_2" data-name="Layer 2"><g id="Layer_1-2" data-name="Layer 1"><path class="cls-1" d="M34.63,0A103.9,103.9,0,0,1,47.1.7a21.28,21.28,0,0,1,3,.55c.24.06.55.08.6.38s-.26.4-.46.54c-.35.25-.72.47-1.06.72a.52.52,0,0,0-.11.84A68.74,68.74,0,0,1,53.12,10a7.19,7.19,0,0,1,.62,2.7,16,16,0,0,1,.16,2.2A3.85,3.85,0,0,1,52.31,18a1.47,1.47,0,0,1-.85.33l-2.08.19c-.39,0-.59-.11-.7-.52A6.42,6.42,0,0,0,44,13.19a1.08,1.08,0,0,1-.89-1.38A6.52,6.52,0,0,0,43,9.1a4,4,0,0,0-2-2.41c-.42-.23-.4-.42-.09-.73s.7-.78,1-1.17.48-.49.33-.86-.53-.43-.88-.48l-4.2-.57c-2-.24-4-.48-5.95-.63a.8.8,0,0,0-.91.6C29.7,4.42,29.05,6,28.39,7.53c-.2.45-.05.53.38.49,1.71-.15,3.43-.29,5.15-.42.17,0,.37-.09.49.07s-.06.29-.14.41a4.07,4.07,0,0,0-.5,2.07,26.06,26.06,0,0,0-.27,3.3c0,.43-.3.42-.59.45a16.68,16.68,0,0,0-4.54.94,15.39,15.39,0,0,0-3.05,1.56,3.71,3.71,0,0,0-1.66,2.5c-.08.48-.3.59-.74.6-.73,0-1.47.05-2.2.1-.44,0-.6-.12-.65-.58A6.56,6.56,0,0,0,7,19c-.07,1-.07,1-1.15,1.14a5.54,5.54,0,0,1-3.72-.6A4.07,4.07,0,0,1,.06,16.9a4.74,4.74,0,0,1,.31-2.33c0-.2.22-.26.4-.29a6.48,6.48,0,0,1,1-.14c2.21,0,3.82-1.38,5.59-2.38a.54.54,0,0,0,.3-.63c-.08-.3-.32-.36-.59-.37A3.47,3.47,0,0,0,5.9,11a34.81,34.81,0,0,1-4.27,1.12c-.17,0-.37.14-.49,0s0-.36.11-.53a2.72,2.72,0,0,1,1.33-1.26C8.81,7.55,15,4.63,21.31,2.17a28,28,0,0,1,7.74-2C30.91,0,32.77,0,34.63,0ZM20.24,8.63l5.57-.39a.79.79,0,0,0,.73-.55c.64-1.49,1.31-3,2-4.47.13-.32.51-.7.28-1s-.7-.08-1.06,0A30.85,30.85,0,0,0,21.47,4c-2.13.77-4.22,1.64-6.29,2.56-.57.25-.6.41-.15.81A2.83,2.83,0,0,0,16.25,8,23.37,23.37,0,0,0,20.24,8.63ZM48.7,5.25a.81.81,0,0,0-.15.13,1.66,1.66,0,0,0,.05,2.21c.48.44,1,.8,1.56,1.2a.43.43,0,0,0,.63-.59c-.58-.91-1.16-1.82-1.75-2.73A.36.36,0,0,0,48.7,5.25Z"/><path class="cls-1" d="M50.77,20.13c.8,0,1.59,0,2.39,0A2.47,2.47,0,0,1,55.42,22c.11.45,0,.65-.49.65a24.89,24.89,0,0,0-2.73.07,6.09,6.09,0,0,0-5.42,5.74c0,1.08,0,1.09-1.11.93-1.49-.22-3-.42-4.48-.7a4,4,0,0,0-2.19.39,5.8,5.8,0,0,1-3.7.18c-.24-.07-.48-.17-.72-.25a.55.55,0,0,1-.4-.57,6.16,6.16,0,0,0-6.37-5.81c-.4,0-.9.19-1.17-.14a6.29,6.29,0,0,1-1.41-2.19,2.37,2.37,0,0,1,1.23-2.74,13.46,13.46,0,0,1,5-1.9c.46-.08.73,0,.71.51s.2.43.51.27c1.85-1,3.8-1.76,5.57-2.9a5.57,5.57,0,0,1,1-.51,2.06,2.06,0,0,1,2.59.61c1.29,1.52,2.69,2.95,4,4.42a4.55,4.55,0,0,1,.57.74,1.8,1.8,0,0,1-1.23,2.85c-1.23.27-2.47.5-3.7.75-1,.19-1.09.43-.69,1.3s.85,1.86,1.28,2.8c.08.17.16.35.26.52a.48.48,0,0,0,.67.26.46.46,0,0,0,.22-.69c-.39-.88-.77-1.77-1.2-2.64-.21-.44-.12-.61.36-.7,1.07-.19,2.13-.42,3.19-.65a2.61,2.61,0,0,0,2-1.85.77.77,0,0,1,.91-.64c.74,0,1.48,0,2.21,0ZM39,20.12v0c.45,0,.89,0,1.34,0a.76.76,0,0,0,.71-.51.68.68,0,0,0-.25-.73c-.75-.76-1.51-1.5-2.25-2.27a.61.61,0,0,0-.78-.14c-1.63.77-3.27,1.51-4.9,2.27-.57.28-.6.55-.11.93.83.64,1.68,1.25,2.5,1.89.32.25.48.17.67-.15a2.41,2.41,0,0,1,2.32-1.27Z"/><path class="cls-1" d="M13.52,14.55a5,5,0,1,1-4.95,5A5,5,0,0,1,13.52,14.55Zm0,3.43a1.53,1.53,0,0,0,0,3.06,1.53,1.53,0,1,0,0-3.06Z"/><path class="cls-1" d="M58.55,28.85a5.5,5.5,0,1,1-5.5-5.57A5.52,5.52,0,0,1,58.55,28.85ZM53,32.25a3.45,3.45,0,0,0,3.49-3.4A3.46,3.46,0,1,0,53,32.25Z"/><path class="cls-1" d="M33.4,28.79a5.53,5.53,0,1,1-5.52-5.51A5.54,5.54,0,0,1,33.4,28.79Zm-5.54,3.46a3.45,3.45,0,1,0-3.42-3.49A3.4,3.4,0,0,0,27.86,32.25Z"/><path class="cls-1" d="M38.32,7.69c1.79,0,2.8.65,3.17,2a4.38,4.38,0,0,1,0,1.73c-.05.31-.2.5-.54.45a5.74,5.74,0,0,0-4.27,1.31l-.76.54a.47.47,0,0,1-.67-.09,1.16,1.16,0,0,1,.45-1.77c.75-.21,1.5-.39,2.24-.61a1,1,0,0,0,.55-1.41.56.56,0,0,0-.66-.23c-.66.15-1.33.28-2,.44-.39.09-.53,0-.48-.43a2.48,2.48,0,0,1,2.28-2C37.9,7.67,38.11,7.69,38.32,7.69Z"/></g></g></svg>