<svg xmlns="http://www.w3.org/2000/svg" viewBox="0 0 39 50.06"><defs><style>.cls-1{fill:#1976d3;}</style></defs><title>Notification</title><g id="Layer_2" data-name="Layer 2"><g id="Layer_1-2" data-name="Layer 1"><path class="cls-1" d="M18.52,50.06A6.05,6.05,0,0,1,16,48.69a5.29,5.29,0,0,1-1.61-3.31c-.05-.37.08-.52.45-.52H24.2c.58,0,.48.4.44.74A5.24,5.24,0,0,1,21,49.89l-.58.17Z"/><path class="cls-1" d="M19.42,42.45H3.14A4.76,4.76,0,0,1,2,42.33,2.6,2.6,0,0,1,.68,38.07c1-1,2-2,3-3a1.29,1.29,0,0,0,.43-1c0-4.29-.06-8.58,0-12.87A17.15,17.15,0,0,1,7.39,11,13.81,13.81,0,0,1,15,5.78c.47-.13.62-.33.61-.79a7.24,7.24,0,0,1,.06-1.8,3.89,3.89,0,0,1,7.7.35,13,13,0,0,1,.05,1.65.48.48,0,0,0,.41.53c6.42,1.91,9.7,6.48,10.85,12.83A21.52,21.52,0,0,1,35,22.39c0,3.89,0,7.78,0,11.67a1.35,1.35,0,0,0,.44,1c.93.89,1.82,1.82,2.73,2.72a2.55,2.55,0,0,1,.73,2.79,2.51,2.51,0,0,1-2.31,1.79c-.26,0-.53,0-.8,0Z"/></g></g></svg>