<svg xmlns="http://www.w3.org/2000/svg" viewBox="0 0 42.04 52.44"><defs><style>.cls-1{fill:#1976d3;}</style></defs><title>Offer my space</title><g id="Layer_2" data-name="Layer 2"><g id="Layer_1-2" data-name="Layer 1"><polygon class="cls-1" points="34.71 37.68 34.71 30.43 30.27 30.43 30.27 37.68 22.94 37.68 22.94 41.83 30.27 41.83 30.27 49.08 34.71 49.08 34.71 41.83 42.04 41.83 42.04 37.68 34.71 37.68"/><path class="cls-1" d="M22.94,44.1H20.67V35.41H28V28.16h9a18.69,18.69,0,0,0,1.88-11.11C37.58,6.6,28.48-.65,17.64.05,8,.67,0,9.41,0,18.68a19.2,19.2,0,0,0,3.21,11.5C7.78,37,12.31,43.8,16.87,50.6c1.64,2.45,3.57,2.46,5.21,0,1.45-2.18,2.91-4.35,4.36-6.52ZM12.64,17.89a6.87,6.87,0,1,1,6.86,6.86A6.87,6.87,0,0,1,12.64,17.89Z"/></g></g></svg>