<?xml version="1.0" encoding="utf-8"?>
<!-- Generator: Adobe Illustrator 23.0.0, SVG Export Plug-In . SVG Version: 6.00 Build 0)  -->
<svg version="1.1" id="Layer_1" xmlns="http://www.w3.org/2000/svg" xmlns:xlink="http://www.w3.org/1999/xlink" x="0px" y="0px"
	 viewBox="0 0 207 207" style="enable-background:new 0 0 207 207;" xml:space="preserve">
<style type="text/css">
	.st0{fill:none;stroke:#FFFFFF;stroke-miterlimit:10;}
	.st1{fill:#FFFFFF;}
</style>
<title>female selected</title>
<g>
	<g id="Layer_1-2">
		<circle class="st0" cx="101.8" cy="101.8" r="88.3"/>
		<path class="st1" d="M142.6,43.4h-31.2v9.7h13.8l-14.3,14.3C96.7,57.3,77,60.6,66.9,74.7s-6.9,33.8,7.3,43.9c4.2,3,9,4.9,14.1,5.6
			v15.8H77.6v9.7h10.7v10.4h9.7v-10.4h10.7v-9.7H98.1v-16c17.1-3,28.6-19.4,25.5-36.5c-0.9-4.8-2.8-9.4-5.7-13.3l15-15v15.3h9.7
			V53.2l0,0L142.6,43.4z M92.6,116.1c-12.7,0-23-10.3-23-23s10.3-23,23-23s23,10.3,23,23l0,0C115.6,105.8,105.3,116.1,92.6,116.1
			C92.6,116.1,92.6,116.1,92.6,116.1L92.6,116.1z"/>
	</g>
</g>
</svg>
