<?xml version="1.0" encoding="utf-8"?>
<!-- Generator: Adobe Illustrator 23.0.0, SVG Export Plug-In . SVG Version: 6.00 Build 0)  -->
<svg version="1.1" id="Layer_1" xmlns="http://www.w3.org/2000/svg" xmlns:xlink="http://www.w3.org/1999/xlink" x="0px" y="0px"
	 viewBox="0 0 207 207" style="enable-background:new 0 0 207 207;" xml:space="preserve">
<style type="text/css">
	.st0{fill:#FFFFFF;}
	.st1{fill:#1976D3;}
</style>
<title>female selected</title>
<g>
	<g>
		<g id="Layer_1-2">
			<image style="overflow:visible;opacity:0.15;enable-background:new    ;" width="207" height="207" xlink:href="CE8536.png" >
			</image>
			<circle class="st0" cx="100.7" cy="100.6" r="88.3"/>
			<path class="st1" d="M145.1,43.9h-31.2v9.7h13.8L113.4,68c-14.1-10.1-33.8-6.9-43.9,7.3s-6.9,33.8,7.3,43.9c4.2,3,9,4.9,14.1,5.6
				v15.8H80.1v9.7h10.7v10.4h9.7v-10.4h10.7v-9.7h-10.7v-16c17.1-3,28.6-19.4,25.5-36.5c-0.9-4.8-2.8-9.4-5.7-13.3l15-15v15.3h9.7
				V53.7l0,0L145.1,43.9z M95,116.6c-12.7,0-23-10.3-23-23s10.3-23,23-23s23,10.3,23,23S107.7,116.6,95,116.6L95,116.6z"/>
		</g>
	</g>
</g>
</svg>
