<svg xmlns="http://www.w3.org/2000/svg" viewBox="0 0 30.28 44.8"><defs><style>.cls-1{fill:#009f76;}</style></defs><title>petrol - green</title><g id="Layer_2" data-name="Layer 2"><g id="Layer_1-2" data-name="Layer 1"><path class="cls-1" d="M20.15,11.62c0,3,0,5.92,0,8.88a1.16,1.16,0,0,0,1,1.36,4.15,4.15,0,0,1,3.19,4.29c0,1,0,2,0,3,0,1.2.68,2,1.6,1.95,1.15-.07,1.48-.85,1.47-1.88,0-2.92,0-5.84,0-8.76,0-1.44-.51-1.87-1.94-1.77a3,3,0,0,1-3-2.93c0-.68-.56-.86-.85-1.27s-.55-.61-.22-1,.74-.12,1,.17.47.47.72.68c.41.34.67,0,.94-.25s.52-.55.13-.92c-.18-.17-.36-.35-.52-.53-.28-.33-.78-.68-.32-1.14s.83,0,1.13.33a1.65,1.65,0,0,0,1.6.61c1-.14,2.69,1.9,2.47,3a1.9,1.9,0,0,0,.76,2,2.6,2.6,0,0,1,.88,2.19c0,3.21,0,6.42,0,9.63a4.36,4.36,0,1,1-8.7.32c-.08-1.06,0-2.13,0-3.2a1.85,1.85,0,0,0-.26-1.19c-.2-.26-.42-.56-.79-.47s-.31.44-.31.72v15.3a.94.94,0,0,0,.52,1,1.51,1.51,0,0,1,.88,1.94A1.71,1.71,0,0,1,19.7,44.8c-3.21,0-6.41,0-9.62,0H2.19c-.91,0-1.79-.13-2.1-1.14a1.58,1.58,0,0,1,1-2c.65-.34.41-1,.41-1.57q0-16,0-32.07c0-1.73,0-3.46,0-5.18A2.56,2.56,0,0,1,4.24,0q6.6-.06,13.2,0a2.55,2.55,0,0,1,2.71,2.83C20.17,5.78,20.15,8.7,20.15,11.62ZM17.56,9.33c0-1.72,0-3.45,0-5.18,0-1.1-.44-1.56-1.55-1.55-3.45,0-6.91,0-10.36,0-1.08,0-1.59.39-1.58,1.51q0,5.25,0,10.49c0,1,.44,1.49,1.48,1.49,3.5,0,7,0,10.49,0,1.12,0,1.54-.49,1.52-1.58C17.53,12.79,17.56,11.06,17.56,9.33Z"/><path class="cls-1" d="M8.39,14.32c-.59-.12-.36-.49-.24-.75.36-.87.73-1.74,1.14-2.59.29-.62.31-1-.55-1-.27,0-.62,0-.75-.29s.19-.6.42-.81c1.44-1.39,2.9-2.77,4.36-4.15.2-.19.43-.49.73-.27s.06.53,0,.78c-.35.83-.7,1.66-1.11,2.47s-.11,1,.67,1,1,.35.38.91c-1.53,1.48-3.08,2.94-4.63,4.41A2.33,2.33,0,0,1,8.39,14.32Z"/></g></g></svg>