<svg xmlns="http://www.w3.org/2000/svg" viewBox="0 0 40.42 40.45"><defs><style>.cls-1{fill:#a3a3a3;}</style></defs><title>Search icon</title><g id="Layer_2" data-name="Layer 2"><g id="Layer_1-2" data-name="Layer 1"><path class="cls-1" d="M0,15.88A15.73,15.73,0,0,1,31.28,13.4a15.48,15.48,0,0,1-1.89,10.12.63.63,0,0,0,.13.93q4.92,4.89,9.8,9.81a3.58,3.58,0,0,1-1,5.84,3.54,3.54,0,0,1-4.11-.78q-4.87-4.86-9.73-9.74a.72.72,0,0,0-1.06-.13A15.72,15.72,0,0,1,.19,18.19,13.81,13.81,0,0,1,0,15.88Zm4.59-.14A11.14,11.14,0,1,0,15.75,4.61,11.13,11.13,0,0,0,4.59,15.74Z"/></g></g></svg>