<svg xmlns="http://www.w3.org/2000/svg" viewBox="0 0 44.66 44.83"><defs><style>.cls-1{fill:#bfbfbf;}</style></defs><title>service</title><g id="Layer_2" data-name="Layer 2"><g id="Layer_1-2" data-name="Layer 1"><path class="cls-1" d="M18.19,10.73a4.74,4.74,0,0,0,1.58,4.12q5.32,5.3,10.61,10.63a4.72,4.72,0,0,0,3.56,1.39,8.12,8.12,0,0,1,7.19,3.62,8.36,8.36,0,0,1,1.32,3.89A1.44,1.44,0,0,1,41.71,36c-.65.31-1.07-.11-1.49-.5-.63-.58-1.25-1.17-1.89-1.73a2.92,2.92,0,0,0-.79-.52c-1.21-.46-2.75.4-4,2.2a2.38,2.38,0,0,0,.28,3.11c.65.74,1.34,1.46,2,2.19a1.11,1.11,0,0,1,.34,1.34,1.26,1.26,0,0,1-1.23.66,7.76,7.76,0,0,1-8.41-8,7,7,0,0,0-2.36-5.52C21,26.15,17.86,23,14.73,19.83A6,6,0,0,0,10.39,18a7.87,7.87,0,0,1-8.13-7.29c-.08-.71-.06-1.37.65-1.77S4,9,4.49,9.39c.63.56,1.24,1.16,1.89,1.72a2.21,2.21,0,0,0,3,.09L9.63,11c2.65-2.26,2.69-3.33.25-5.8C9.5,4.81,9.14,4.42,8.78,4A1.06,1.06,0,0,1,8.5,2.77a1.2,1.2,0,0,1,1.11-.68A7.89,7.89,0,0,1,18,8.41,8.25,8.25,0,0,1,18.19,10.73Z"/><path class="cls-1" d="M22.14,44.82h-1c-1.83-.06-2.54-.78-2.6-2.63s-.06-2-2-2.65a17.72,17.72,0,0,1-3.93-1.87.82.82,0,0,0-1.26.15A16,16,0,0,1,10,39.19a1.69,1.69,0,0,1-2.48-.08,24.92,24.92,0,0,1-2.16-2.2c-.8-.93-.86-1.91.07-2.64C7.05,33,7.22,31.68,6,29.94a9,9,0,0,1-1.19-3.39c-.13-.68-.49-.91-1.18-.92C.16,25.55,0,25.34,0,21.81a10.6,10.6,0,0,1,.06-1.27A1.92,1.92,0,0,1,1.9,18.78a6.76,6.76,0,0,1,3.93.57c1.5.85,3.19.85,4.86,1s2.09.52,2.15,2.34c.13,4.24,2.34,7,6.1,8.69a8.48,8.48,0,0,0,3.43.61c1.42,0,1.82.35,1.79,1.75a15.13,15.13,0,0,0,1.14,6.12,6.28,6.28,0,0,1,0,3.57,1.77,1.77,0,0,1-1.7,1.37,12.35,12.35,0,0,1-1.49,0Z"/><path class="cls-1" d="M22.52,0h.11c3,.05,3.49.5,3.44,3.47A1.5,1.5,0,0,0,27.4,5.27a14.8,14.8,0,0,1,4.46,2c.58.38.92.24,1.37-.18,2.72-2.53,3-2.51,5.52.18,1.62,1.69,1.61,2.35,0,4A8.85,8.85,0,0,1,38,12a.89.89,0,0,0-.2,1.37,15.57,15.57,0,0,1,2,4.91,1.1,1.1,0,0,0,1.24,1c3.45.07,3.67.32,3.64,3.75a12.23,12.23,0,0,1-.08,1.48A1.69,1.69,0,0,1,43.16,26a6.21,6.21,0,0,1-3.76-.27,11.35,11.35,0,0,0-5.13-1.17c-1.85,0-2.29-.49-2.32-2.3a9.66,9.66,0,0,0-9.32-9.38c-1.89-.05-2.16-.28-2.13-2.19a13,13,0,0,0-1.06-5.49,6.37,6.37,0,0,1-.14-3.67A1.75,1.75,0,0,1,20.93.08C21.45,0,22,0,22.52,0Z"/></g></g></svg>