<svg xmlns="http://www.w3.org/2000/svg" viewBox="0 0 71.98 71.98"><defs><style>.cls-1{fill:#1976d3;}.cls-2{fill:#fff;}</style></defs><title>Share icon</title><g id="Layer_2" data-name="Layer 2"><g id="Layer_1-2" data-name="Layer 1"><rect class="cls-1" width="71.98" height="71.98" rx="8.05"/><g id="share-alt"><path class="cls-2" d="M49.39,30.43a5.27,5.27,0,0,0-3.77,1.51L32.24,24.21a3.16,3.16,0,0,0,.19-1.32,5.66,5.66,0,1,0-5.65,5.66A5.3,5.3,0,0,0,30.55,27l13.37,7.72a3.37,3.37,0,0,0-.18,1.32,3.33,3.33,0,0,0,.18,1.32L30.55,45.32a5.26,5.26,0,0,0-3.77-1.51,5.47,5.47,0,1,0,5.46,5.46A3.69,3.69,0,0,0,32.05,48L45.43,40a5.27,5.27,0,0,0,3.77,1.51,5.55,5.55,0,0,0,5.65-5.66A5.24,5.24,0,0,0,49.39,30.43Z"/></g></g></g></svg>