<svg xmlns="http://www.w3.org/2000/svg" viewBox="0 0 35.89 34.5"><defs><style>.cls-1{fill:none;stroke:#a3a3a3;stroke-miterlimit:10;}</style></defs><title>Star</title><g id="Layer_2" data-name="Layer 2"><g id="Layer_1-2" data-name="Layer 1"><path class="cls-1" d="M7.13,12.4h5.68a.36.36,0,0,0,.41-.28c.48-1.38,1-2.75,1.46-4.13s1.08-3,1.62-4.57c.28-.78.55-1.55.83-2.32A.77.77,0,0,1,18,.5a.78.78,0,0,1,.79.63q.84,2.37,1.7,4.76,1,2.82,2,5.64c.07.21.16.42.22.64a.29.29,0,0,0,.33.23H34.42a.89.89,0,0,1,.82.39A.85.85,0,0,1,35.05,14L33.71,15l-6.83,5.4c-.28.22-.55.44-.83.64a.27.27,0,0,0-.11.35l1,2.91c.55,1.53,1.09,3.07,1.64,4.6l1.27,3.57a3.52,3.52,0,0,1,.13.43.84.84,0,0,1-.42.93.72.72,0,0,1-.85,0l-4.43-2.65-4.4-2.62c-.6-.36-1.2-.71-1.79-1.08a.28.28,0,0,0-.34,0l-6.48,3.87-4.1,2.44a.81.81,0,0,1-.94,0,.84.84,0,0,1-.35-1.05c.33-1,.68-1.94,1-2.91.48-1.36,1-2.72,1.45-4.08.41-1.17.83-2.34,1.25-3.51.11-.31.21-.62.33-.92a.21.21,0,0,0-.08-.27L4.53,16.87Q2.72,15.45.91,14a.87.87,0,0,1,0-1.47.92.92,0,0,1,.56-.14Z"/></g></g></svg>