<svg xmlns="http://www.w3.org/2000/svg" xmlns:xlink="http://www.w3.org/1999/xlink" viewBox="0 0 34.89 33.5"><defs><style>.cls-1{fill:url(#linear-gradient);}</style><linearGradient id="linear-gradient" y1="16.75" x2="34.89" y2="16.75" gradientUnits="userSpaceOnUse"><stop offset="0" stop-color="#f29900"/><stop offset="1" stop-color="#f2b855"/></linearGradient></defs><title>Star select</title><g id="Layer_2" data-name="Layer 2"><g id="Layer_1-2" data-name="Layer 1"><path class="cls-1" d="M6.63,11.9h5.68a.36.36,0,0,0,.41-.28c.48-1.38,1-2.75,1.46-4.13s1.08-3,1.62-4.57c.28-.78.55-1.55.83-2.32A.77.77,0,0,1,17.5,0a.78.78,0,0,1,.79.63Q19.13,3,20,5.39,21,8.21,22,11c.07.21.16.42.22.64a.29.29,0,0,0,.33.23H33.92a.89.89,0,0,1,.82.39.85.85,0,0,1-.19,1.17l-1.34,1.07-6.83,5.4c-.28.22-.55.44-.83.64a.27.27,0,0,0-.11.35l1,2.91c.55,1.53,1.09,3.07,1.64,4.6L29.39,32a3.52,3.52,0,0,1,.13.43.84.84,0,0,1-.42.93.72.72,0,0,1-.85,0l-4.43-2.65-4.4-2.62c-.6-.36-1.2-.71-1.79-1.08a.28.28,0,0,0-.34,0l-6.48,3.87-4.1,2.44a.81.81,0,0,1-.94,0,.84.84,0,0,1-.35-1.05c.33-1,.68-1.94,1-2.91.48-1.36,1-2.72,1.45-4.08.41-1.17.83-2.34,1.25-3.51.11-.31.21-.62.33-.92a.21.21,0,0,0-.08-.27L4,16.37Q2.22,14.95.41,13.51A.87.87,0,0,1,.4,12,.92.92,0,0,1,1,11.9Z"/></g></g></svg>