<svg xmlns="http://www.w3.org/2000/svg" viewBox="0 0 45.69 51.24"><defs><style>.cls-1{fill:#1976d3;}</style></defs><title>Support</title><g id="Layer_2" data-name="Layer 2"><g id="Layer_1-2" data-name="Layer 1"><path class="cls-1" d="M44.06,19a23.83,23.83,0,0,0-3.38,0,4.51,4.51,0,0,0-1,.25c-.29.12-.37,0-.41-.25a15.8,15.8,0,0,0-1.64-4.88A16.55,16.55,0,0,0,29,6.32a15.86,15.86,0,0,0-9.13-.9,16.35,16.35,0,0,0-12,9.11A14.62,14.62,0,0,0,6.48,19c-.06.33-.16.38-.47.27a4.69,4.69,0,0,0-1.78-.29,22,22,0,0,0-2.57,0c-.28,0-.39-.06-.34-.36A23.05,23.05,0,0,1,2.55,14,21.55,21.55,0,0,1,8.47,5.44a21.39,21.39,0,0,1,11-5.18,21.72,21.72,0,0,1,22,10.39,11,11,0,0,1,.9,1.69,1.77,1.77,0,0,0,.37.6c.18.18.09.42.18.62a22.1,22.1,0,0,1,1.38,5C44.42,19,44.38,19,44.06,19Z"/><path class="cls-1" d="M45.69,27.51v4.13A2.23,2.23,0,0,1,43.28,34,15.05,15.05,0,0,1,40.86,34a2.92,2.92,0,0,1-2.47-2.92V28.35c0-1.48,0-3,0-4.42A2.88,2.88,0,0,1,41.3,21q1.13,0,2.25,0a2.14,2.14,0,0,1,2.14,2.16c0,1.44,0,2.88,0,4.32Z"/><path class="cls-1" d="M7.3,27.47c0,1.24,0,2.48,0,3.71A3,3,0,0,1,4.39,34H2.22A2.2,2.2,0,0,1,0,31.8c0-2.86,0-5.73,0-8.59A2.13,2.13,0,0,1,2.21,21c.72,0,1.45,0,2.17,0A2.9,2.9,0,0,1,7.3,24c0,.59,0,1.18,0,1.78v1.74Z"/><path class="cls-1" d="M43.57,36.18a11.67,11.67,0,0,1-.19,1.9c0,.11-.08.23.08.3s.13,0,0,.07c-.37.17-.29.55-.37.83a14.2,14.2,0,0,1-1,2.47c-.07.14-.23.27-.11.46,0,0,0,0,0,.06-.56.31-.72.93-1.08,1.41a15.18,15.18,0,0,1-7.86,5.56,11.17,11.17,0,0,1-2.62.52,1.49,1.49,0,0,1-1.67-1.34,1.53,1.53,0,0,1,1.44-1.63,11.83,11.83,0,0,0,9.19-6.29A9.71,9.71,0,0,0,40.59,36a1.4,1.4,0,0,1,.92-1.36,1.43,1.43,0,0,1,1.59.29A1.47,1.47,0,0,1,43.57,36.18Z"/><path class="cls-1" d="M23.91,51.24H22a2.18,2.18,0,0,1-2.29-2,6.75,6.75,0,0,1,0-1.68,2.09,2.09,0,0,1,2-1.88,32.47,32.47,0,0,1,4.52,0,2.14,2.14,0,0,1,2,2.19c0,.38,0,.76,0,1.14A2.21,2.21,0,0,1,26,51.24Z"/></g></g></svg>