<svg xmlns="http://www.w3.org/2000/svg" viewBox="0 0 30.74 36.81"><defs><style>.cls-1{fill:#1976d3;}</style></defs><title>TandC</title><g id="Layer_2" data-name="Layer 2"><g id="Layer_1-2" data-name="Layer 1"><path class="cls-1" d="M0,18.42V3.17C0,.88.88,0,3.15,0H14.61a6.92,6.92,0,0,1,5.18,2.15q4.35,4.42,8.78,8.77A6.87,6.87,0,0,1,30.73,16c0,5.88,0,11.75,0,17.63,0,2.39-.83,3.18-3.21,3.18H3.06c-2.17,0-3.06-.88-3.06-3ZM15.31,33.53c3.69,0,7.39,0,11.08,0,.83,0,1.09-.25,1.09-1.08q0-8,0-16c0-.77-.22-1-1-1-2.91,0-5.81,0-8.72,0a2.26,2.26,0,0,1-2.45-2.12A9.74,9.74,0,0,1,15.21,12c0-2.59,0-5.18,0-7.77,0-.78-.24-1-1-.94q-4.93,0-9.85,0c-.85,0-1.16.22-1.15,1.12q0,14,0,28c0,.88.29,1.13,1.15,1.12C8.05,33.51,11.68,33.53,15.31,33.53Zm3.18-27.8v5.94c0,.33.14.56.49.57h6.09Z"/><path class="cls-1" d="M15.29,18.33h7.87c1.2,0,1.38.2,1.39,1.37,0,1.63-.13,1.89-1.37,1.89q-7.82,0-15.64,0c-1.23,0-1.48-.36-1.45-1.77,0-1.23.28-1.48,1.52-1.49Z"/><path class="cls-1" d="M15.39,24.41c2.56,0,5.11,0,7.67,0,1.32,0,1.49.19,1.49,1.58s-.16,1.69-1.46,1.69q-7.72,0-15.45,0c-1.29,0-1.56-.31-1.55-1.67s.26-1.59,1.52-1.6C10.2,24.4,12.8,24.41,15.39,24.41Z"/></g></g></svg>